<?xml version="1.0" encoding="utf-8"?>
<svg version="1.1" xmlns:xlink="http://www.w3.org/1999/xlink" width="16px" height="9px" xmlns="http://www.w3.org/2000/svg">
  <g transform="matrix(1 0 0 1 -319 -41 )">
    <path d="M 13.587500000000002 0.5250000097656251  C 13.953521934589197 0.15943328069141138  14.546478075176427 0.1594332806914096  14.912500009765626 0.5250000097656251  C 15.27806671933288 0.8910219409895674  15.27806671933288 1.4839780590104326  14.912500009765626 1.849999990234375  L 8.662499990234375 8.100000009765626  C 8.296478059010433 8.46556671933288  7.703521940989567 8.46556671933288  7.337500009765625 8.100000009765626  L 1.0874999902343738 1.849999990234375  C 0.8971907811541007 1.6726680533393736  0.7891145675442113 1.4242380251080284  0.7891145675442113 1.164114571909952  C 0.7891145675442113 0.6463476189435831  1.2088476145778433 0.22661457190995193  1.7266145675442122 0.22661457190995193  C 1.986738027951148 0.22661457190995193  2.2351680623984542 0.3346907914903081  2.4124999999999996 0.5250000097656251  L 8 6.1125000097656255  L 13.587500000000002 0.5250000097656251  Z " fill-rule="nonzero" fill="#202020" stroke="none" transform="matrix(1 0 0 1 319 41 )" />
  </g>
</svg>