<?xml version="1.0" encoding="utf-8"?>
<svg version="1.1" xmlns:xlink="http://www.w3.org/1999/xlink" width="30px" height="29px" xmlns="http://www.w3.org/2000/svg">
  <defs>
    <linearGradient gradientUnits="userSpaceOnUse" x1="32.5095" y1="21.433747368421052" x2="3.246450000000002" y2="4.300211578947368" id="LinearGradient262">
      <stop id="Stop263" stop-color="#916b23" stop-opacity="0.9882352941176471" offset="0" />
      <stop id="Stop264" stop-color="#d9b269" stop-opacity="0.996078431372549" offset="0.4" />
      <stop id="Stop265" stop-color="#ffefd0" offset="0.61" />
      <stop id="Stop266" stop-color="#b9892b" offset="0.93" />
      <stop id="Stop267" stop-color="#b9892b" offset="1" />
    </linearGradient>
  </defs>
  <g transform="matrix(1 0 0 1 -20 -18 )">
    <path d="M 30 0.3208163157894735  C 30 0.14364157894736795  29.858849999999997 0  29.6847 0  L 0.25226999999999933 0  C 0.11301000000000094 0  0.00016499999999908255 0.11090210526315782  0.00031499999999873296 0.25260526315789433  C 0.005535000000000956 5.20430947368421  0.012435000000000862 15.527057894736842  4.500000000096094E-05 19.18517894736842  C -0.011985000000000579 22.7331  2.668739999999999 26.485242105263158  4.19835 28.13412105263158  C 4.317 28.262026315789477  4.5135000000000005 28.262026315789477  4.6371 28.139005263157895  C 5.679600000000001 27.10172105263158  7.5322499999999994 25.242363157894737  8.53455 24.183100000000003  C 8.681549999999998 24.027721052631577  8.63535 23.77145263157895  8.465399999999999 23.64247894736842  C 6.73635 22.33045789473684  6.290100000000001 18.45544736842105  6.290100000000001 16.570447368421053  L 6.290100000000001 6.448531578947368  C 6.290100000000001 6.271341578947369  6.4312499999999995 6.127715263157894  6.605400000000001 6.127715263157894  L 23.5365 6.127715263157894  C 23.710649999999998 6.127715263157894  23.8518 6.271341578947369  23.8518 6.448531578947368  L 23.8518 9.352042105263159  C 23.8518 9.529094736842106  23.710649999999998 9.672873684210527  23.5365 10  L 10.3731 10  C 10.19895 9.672873684210527  10.0578 9.8165  10.0578 9.993552631578947  L 10.0578 13.047099999999999  C 10.0578 13.135626315789473  10.091249999999999 13.217742105263158  10.1547 13.27848947368421  C 14.486700000000003 17.423199999999998  23.3364 25.894710526315787  25.592249999999996 28.070168421052628  C 25.686 28.160678947368417  25.820999999999998 28.18143684210526  25.9344 28.1184  C 28.3845 26.756315789473685  29.598900000000004 21.97696315789474  29.954549999999998 19.39703157894737  C 29.980800000000002 19.2067  29.833949999999998 19.040789473684214  29.64525 19.040789473684214  L 25.05435 19.040789473684214  C 24.970800000000004 19.040789473684214  24.890549999999998 19.007057894736842  24.831450000000004 18.946921052631577  L 22.35645 16.428347368421054  C 22.157849999999996 16.226263157894735  22.29855 15.880705263157894  22.57935 15.880705263157894  L 29.6847 15.880705263157894  C 29.858849999999997 15.880705263157894  30 15.73707894736842  30 15.559873684210528  L 30 0.3208163157894735  Z " fill-rule="nonzero" fill="url(#LinearGradient262)" stroke="none" transform="matrix(1 0 0 1 20 18 )" />
  </g>
</svg>