<?xml version="1.0" encoding="utf-8"?>
<svg version="1.1" xmlns:xlink="http://www.w3.org/1999/xlink" width="40px" height="40px" xmlns="http://www.w3.org/2000/svg">
  <g transform="matrix(1 0 0 1 -289 -144 )">
    <path d="M 31.0182211902439 13.277300253658538  C 31.0182211902439 12.589396175609755  30.455390556097562 12.026565541463414  29.76748647804878 12.026565541463414  L 25.26484148292683 12.026565541463414  C 24.57693736585366 12.026565541463414  24.014106770731708 12.589396175609755  24.014106770731708 13.277300253658538  C 24.014106770731708 13.965204331707318  24.576937404878052 14.528034965853658  25.26484148292683 14.528034965853658  L 29.76748647804878 14.528034965853658  C 30.455390595121948 14.528034965853658  31.0182211902439 13.965204331707318  31.0182211902439 13.277300253658538  Z M 31.0182211902439 17.717408546341463  C 31.0182211902439 17.029504468292682  30.455390556097562 16.46667383414634  29.76748647804878 16.46667383414634  L 25.26484148292683 16.46667383414634  C 24.57693736585366 16.46667383414634  24.014106770731708 17.029504468292682  24.014106770731708 17.717408546341463  C 24.014106770731708 18.40531262439024  24.576937404878052 18.968143258536582  25.26484148292683 18.968143258536582  L 29.76748647804878 18.968143258536582  C 30.455390595121948 18.968143258536582  31.0182211902439 18.40531262439024  31.0182211902439 17.717408546341463  Z M 31.0182211902439 22.595273990243896  C 31.0182211902439 21.907369912195122  30.455390556097562 21.344539278048778  29.76748647804878 21.344539278048778  L 25.26484148292683 21.344539278048778  C 24.57693736585366 21.344539278048778  24.014106770731708 21.907369912195122  24.014106770731708 22.595273990243896  C 24.014106770731708 23.283178068292678  24.576937404878052 23.846008702439022  25.26484148292683 23.846008702439022  L 29.76748647804878 23.846008702439022  C 30.455390595121948 23.846008702439022  31.0182211902439 23.283178068292678  31.0182211902439 22.595273990243896  Z M 38.27248257560976 28.098506731707317  C 40.52380511219512 23.033031141463415  40.52380511219512 17.404724878048782  38.39755605853659 12.214175765853659  C 34.52027843902439 2.958738809756097  24.264253658536582 -1.9191266341463415  14.633596292682927 0.7699530146341464  C 4.690255219512196 3.521569443902439  -1.4383449365853656 13.277300292682927  0.3126836682926829 23.408251551219514  C 1.0005877853658536 27.410602653658536  4.3775715121951215 30.287292526829273  8.379922653658536 30.349829268292684  L 13.320324799999998 30.349829268292684  L 13.320324799999998 36.85364983414634  C 13.320324799999998 37.29140698536585  13.50793502439024 37.66662739512195  13.883155434146339 37.85423761951219  C 14.008228917073168 37.91677436097561  16.947455492682924 39.980486634146345  20.136829073170727 39.980486634146345  C 22.26307808780487 39.980486634146345  24.451863882926826 39.60526622439025  26.578112897560974 38.85482536585366  C 31.768662009756095 37.041260019512194  36.02116007804878 33.16398236097561  38.27248257560976 28.098506731707317  Z M 36.08369681951219 13.214763551219512  C 37.95979890731707 17.717408546341463  37.89726216585366 22.65781073170732  35.958623375609754 27.097918985365858  C 33.95744780487804 31.538027278048784  30.330317112195118 34.91501100487805  25.765135375609756 36.47842942439024  C 23.889033287804878 37.1037968  22.012931199999997 37.47901720975611  20.13682911219512 37.47901720975611  C 18.448337248780483 37.47901720975611  16.697308604878046 36.60350290731708  15.821794302439024 36.165745756097564  L 15.821794302439024 30.349829268292684  L 20.637122965853656 30.349829268292684  C 21.32502708292683 30.349829268292684  21.887857678048782 29.786998634146336  21.887857678048782 29.099094556097562  C 21.887857678048782 28.41119047804878  21.325027043902438 27.848359843902443  20.637122965853656 27.848359843902443  L 15.821794263414635 27.848359843902443  L 15.821794263414635 23.971082185365855  L 20.637122965853656 23.97108218536585  C 21.32502708292683 23.97108218536585  21.887857678048782 23.408251551219507  21.887857678048782 22.720347473170726  C 21.887857678048782 22.032443395121952  21.325027043902438 21.469612760975608  20.637122965853656 21.469612760975608  L 16.384624897560975 21.469612760975608  C 16.44716163902439 21.407076019512196  16.57223512195122 21.282002536585367  16.634771824390246 21.15692909268293  L 20.38697603902439 13.777594185365857  C 20.699659707317075 13.152226809756101  20.4495127804878 12.401785990243903  19.82414540487805 12.08910232195122  C 19.198778029268293 11.776418653658535  18.448337209756097 12.026565580487805  18.135653541463412 12.65193295609756  L 14.821206517073172 19.093216780487804  L 11.506759492682924 12.65193295609756  C 11.194075824390243 12.026565580487805  10.443634965853658 11.776418653658535  9.818267629268291 12.08910232195122  C 9.192900253658536 12.401785990243903  8.942753326829267 13.152226848780488  9.255436995121949 13.777594185365857  L 13.07017791219512 21.21946579512195  C 13.132714653658535 21.282002536585367  13.132714653658535 21.344539278048778  13.19525139512195 21.407076019512196  L 13.19525139512195 21.532149502439026  L 8.379922692682927 21.532149502439026  C 7.692018575609756 21.532149502439026  7.129187980487803 22.09498013658537  7.129187980487803 22.782884214634148  C 7.129187980487803 23.470788292682926  7.692018614634145 24.03361892682927  8.379922692682925 24.03361892682927  L 13.195251395121947 24.03361892682927  L 13.195251395121947 27.910896585365855  L 8.379922692682923 27.910896585365855  L 8.254849209756095 27.910896585365855  C 5.503232819512192 27.848359843902443  3.1268368390243877 25.847184273170733  2.626542946341461 23.033031141463415  C 1.250734712195122 14.090277853658538  6.628894048780488 5.585281717073169  15.321500370731707 3.1463489951219517  C 23.763959765853656 0.7699530146341464  32.70671305365853 5.084987824390243  36.08369681951219 13.214763551219512  Z " fill-rule="nonzero" fill="#d6af66" stroke="none" transform="matrix(1 0 0 1 289 144 )" />
  </g>
</svg>