<?xml version="1.0" encoding="utf-8"?>
<svg version="1.1" xmlns:xlink="http://www.w3.org/1999/xlink" width="18px" height="18px" xmlns="http://www.w3.org/2000/svg">
  <defs>
    <linearGradient gradientUnits="userSpaceOnUse" x1="18.477599999999995" y1="12.9711" x2="2.2388999999999992" y2="4.3299" id="LinearGradient380">
      <stop id="Stop381" stop-color="#916b23" stop-opacity="0.9882352941176471" offset="0" />
      <stop id="Stop382" stop-color="#d9b269" stop-opacity="0.996078431372549" offset="0.4" />
      <stop id="Stop383" stop-color="#ffefd0" offset="0.61" />
      <stop id="Stop384" stop-color="#b9892b" offset="0.93" />
      <stop id="Stop385" stop-color="#b9892b" offset="1" />
    </linearGradient>
  </defs>
  <g transform="matrix(1 0 0 1 -26 -39 )">
    <path d="M 14.08785 8.374199999999998  L 15.1281 7.333949999999998  C 15.2745 7.187549999999998  15.51195 7.187549999999998  15.6585 7.333949999999998  L 16.870050000000003 8.545499999999999  C 17.016450000000003 8.692049999999998  17.016450000000003 8.929499999999999  16.870050000000003 9.075899999999999  L 9.376200000000003 16.569750000000003  C 9.229799999999997 16.716150000000003  8.992350000000002 16.716150000000003  8.845800000000002 16.569750000000003  L 1.3519500000000013 9.075899999999999  C 1.2055499999999988 8.929499999999999  1.2055499999999988 8.692049999999998  1.3519500000000013 8.545499999999999  L 2.563649999999999 7.333949999999998  C 2.710049999999999 7.187549999999998  2.9475 7.187549999999998  3.0938999999999997 7.333949999999998  L 4.13415 8.374199999999998  C 4.28055 8.520599999999998  4.518000000000001 8.520599999999998  4.66455 8.374199999999998  L 5.969850000000001 7.0688999999999975  L 7.275300000000001 8.374199999999998  C 7.421700000000001 8.520599999999998  7.659150000000002 8.520599999999998  7.805550000000002 8.374199999999998  L 9.111000000000002 7.0688999999999975  L 10.416449999999998 8.374199999999998  C 10.562849999999997 8.520599999999998  10.800299999999998 8.520599999999998  10.946699999999998 8.374199999999998  L 12.252149999999999 7.0688999999999975  L 13.557599999999999 8.374199999999998  C 13.703999999999999 8.520599999999998  13.94145 8.520599999999998  14.08785 8.374199999999998  Z M 9.111000000000002 3.9277500000000014  L 10.681649999999998 5.498250000000002  L 9.111000000000002 7.0688999999999975  L 7.5405000000000015 5.498250000000002  L 9.111000000000002 3.9277500000000014  Z M 10.681649999999998 5.498250000000002  L 11.986949999999998 4.192800000000002  C 12.133499999999998 4.046400000000002  12.3708 4.046400000000002  12.517349999999999 4.192800000000002  L 13.557599999999999 5.233050000000002  C 13.703999999999999 5.379600000000002  13.703999999999999 5.6170500000000025  13.557599999999999 5.763450000000002  L 12.252149999999999 7.0688999999999975  L 10.681649999999998 5.498250000000002  Z M 9.111000000000002 3.9277500000000014  L 10.416449999999998 2.622300000000001  C 10.562849999999997 2.475900000000001  10.562849999999997 2.2384500000000003  10.416449999999998 2.0919000000000008  L 9.376200000000003 1.0518  C 9.229799999999997 0.9052500000000006  8.992350000000002 0.9052500000000006  8.845800000000002 1.0518  L 7.805550000000002 2.0919000000000008  C 7.659150000000002 2.2384500000000003  7.659150000000002 2.475900000000001  7.805550000000002 2.622300000000001  L 9.111000000000002 3.9277500000000014  Z M 6.235050000000001 4.192800000000002  L 7.5405000000000015 5.498250000000002  L 5.969850000000001 7.0688999999999975  L 4.66455 5.763450000000002  C 4.518000000000001 5.6170500000000025  4.518000000000001 5.379600000000002  4.66455 5.233050000000002  L 5.704650000000001 4.192800000000002  C 5.8512 4.046400000000002  6.088650000000001 4.046400000000002  6.235050000000001 4.192800000000002  Z " fill-rule="nonzero" fill="url(#LinearGradient380)" stroke="none" transform="matrix(1 0 0 1 26 39 )" />
  </g>
</svg>