<?xml version="1.0" encoding="utf-8"?>
<svg version="1.1" xmlns:xlink="http://www.w3.org/1999/xlink" width="20px" height="18px" xmlns="http://www.w3.org/2000/svg">
  <g transform="matrix(1 0 0 1 -305 -24 )">
    <path d="M 8.68421052631579 16.028571435267857  C 8.682456147203947 16.028571435267857  8.68421052631579 16.88657142857143  8.68421052631579 16.88657142857143  C 8.68421052631579 16.88571427901786  11.31578947368421 16.88571427901786  11.31578947368421 16.88571427901786  C 11.317543852796053 16.88571427901786  11.31578947368421 16.027714285714286  11.31578947368421 16.027714285714286  C 11.31578947368421 16.028571435267857  8.68421052631579 16.028571435267857  8.68421052631579 16.028571435267857  Z M 12.19298246299342 16.130999993303572  C 13.82710675490425 15.671219820285538  15.271000273798395 14.719127626864534  16.318859642269736 13.410428564732142  C 16.11842105263158 13.441285707589286  15.912280694901318 13.457142863839284  15.701754379111843 13.457142863839284  C 15.459524229462122 13.457142863839284  15.263157894736839 13.265264902479146  15.263157894736839 13.028571441964285  L 15.26315789473684 6.171428571428571  C 15.26315789473684 5.934735110913709  15.45952422946213 5.742857149553571  15.70175437911184 5.742857149553571  C 15.84795320723684 5.742857149553571  15.555555550986842 5.742857149553571  15.701754379111843 5.742857149553572  C 16.365682600024645 5.741843566560621  17.01905091585776 5.905211940595764  17.600877199835526 6.217714285714287  C 16.500877199835525 3.1684285647321433  13.475438589638157 1.0285714285714285  9.985526315789473 1.0285714285714285  C 6.490350884046052 1.0285714285714285  3.457017537006579 3.1744285714285714  2.3614035156249997 6.238285714285714  C 2.952409325105429 5.912499591113744  3.6196832725117867 5.74181630560051  4.298245620888158 5.742857149553572  C 4.540475770537869 5.742857149553572  4.7368421052631575 5.93473511091371  4.7368421052631575 6.171428571428572  L 4.7368421052631575 13.028571421875  C 4.736842105263158 13.265264902479151  4.540475770537871 13.457142863839287  4.298245620888159 13.457142863839287  C 2.118000671586532 13.457142867568024  0.35070363144492683 11.730241188343943  0.35070363144492683 9.600000010425166  C 0.35070363144492683 8.71286298768533  0.6636616634749317 7.852842189619165  1.2368421052631577 7.164857149553573  C 1.2248567566306345 7.107273904071366  1.2251553779743085 7.047893938110091  1.2377193050986839 6.990428571428574  C 2.0921052631578947 3.0432857142857146  5.733333326480263 0.1714285647321427  9.985087726151317 0.1714285647321427  C 14.296491241776316 0.1714285647321427  17.973245620888157 3.123428564732143  18.764035094572364 7.144285720982143  L 18.768421052631577 7.171285720982143  C 19.33939534917404 7.857633269297567  19.650473513492457 8.715494609723349  19.649122800164477 9.600000006696428  C 19.649122800164477 11.014285720982143  18.86973684210527 12.251142863839284  17.707894736842107 12.922714285714285  C 16.52280701069079 14.945571421874998  14.526315789473685 16.433571435267854  12.182017537006578 17.022428578124998  C 12.114543008507866 17.438413992125657  11.746817270839545 17.744245835517304  11.31578947368421 17.742857142857144  L 8.68421052631579 17.742857142857144  C 8.199561410361841 17.742857142857144  7.807017537006579 17.35800000669643  7.807017537006579 16.88657142857143  L 7.807017537006579 16.027714285714286  C 7.807017537006579 15.554571428571428  8.196052631578945 15.17142857142857  8.68421052631579 15.17142857142857  L 11.31578947368421 15.17142857142857  C 11.80043858963816 15.17142857142857  12.19298246299342 15.556285707589286  12.19298246299342 16.027714285714286  L 12.19298246299342 16.130999993303572  Z M 3.859649115953947 6.6162857142857145  C 3.859649115953947 6.6162857142857145  1.221929810855263 6.916285707589285  1.2280701685855262 9.600000006696428  C 1.2342105263157892 12.283714285714286  3.859649115953947 12.592285714285714  3.859649115953947 12.592285714285714  L 3.859649115953947 6.6162857142857145  Z M 16.140350884046054 12.592285714285714  C 16.140350884046054 12.592285714285714  18.76578947368421 12.283714285714286  18.771929831414475 9.600000006696428  C 18.77807018914474 6.916285727678571  16.140350884046054 6.616285714285714  16.140350884046054 6.616285714285714  L 16.140350884046054 12.592285714285714  Z " fill-rule="nonzero" fill="#d6af66" stroke="none" transform="matrix(1 0 0 1 305 24 )" />
  </g>
</svg>