<?xml version="1.0" encoding="utf-8"?>
<svg version="1.1" xmlns:xlink="http://www.w3.org/1999/xlink" width="30px" height="30px" xmlns="http://www.w3.org/2000/svg">
  <g transform="matrix(1 0 0 1 -17 -483 )">
    <path d="M 29.830528846153847 15  C 29.830528846153847 6.809325086343558  23.190674913656444 0.16947115384615394  15 0.16947115384615394  C 6.809325086343558 0.16947115384615394  0.16947115384615394 6.809325086343558  0.16947115384615394 15  C 0.16947115384615394 23.190674913656444  6.809325086343558 29.830528846153847  15 29.830528846153847  C 23.190674913656444 29.830528846153847  29.830528846153847 23.190674913656444  29.830528846153847 15  Z M 19.824519230769237 9.623798076923077  C 20.538461538461544 10.088942307692307  21.820312500000004 10.927283653846152  21.522836538461544 12.744591346153847  C 21.219951923076923 14.567307692307692  19.272836538461544 15.173076923076923  19.272836538461544 15.173076923076929  C 20.66699986201858 15.979614370088148  21.324947754952127 17.637911610441076  20.86298076923077 19.180889423076923  C 20.159855769230774 21.998798076923077  16.974158653846157 21.966346153846157  16.135817307692307 21.755408653846153  L 14.870192307692308 21.436298076923077  L 14.194110576923078 24.140625  L 12.517427884615383 23.718749999999996  L 13.193509615384615 21.014423076923077  L 12.111778846153845 20.743990384615383  L 11.435697115384615 23.448317307692307  L 9.677884615384615 23.004807692307693  L 10.353966346153845 20.30048076923077  L 7.049278846153846 19.478365384615383  L 7.514423076923077 17.612379807692303  L 9.304687499999998 18.05588942307692  C 9.461538461538462 18.099158653846146  9.477764423076922 18.05588942307692  9.504807692307693 17.91526442307692  C 9.531850961538462 17.77463942307692  11.668269230769232 9.261418269230766  11.668269230769232 9.201923076923075  C 11.668269230769232 9.142427884615381  11.71153846153846 9.039663461538456  11.522235576923077 8.990985576923073  L 9.645432692307692 8.509615384615385  L 10.067307692307693 6.827524038461539  L 13.48016826923077 7.682091346153844  L 14.18329326923077 4.847956730769231  L 15.805889423076923 5.253605769230769  L 15.102764423076927 8.087740384615383  L 16.39002403846154 8.406850961538462  L 17.098557692307697 5.578124999999999  L 18.721153846153854 5.978365384615384  L 18.012620192307693 8.834134615384613  C 18.64476238938323 9.02729404450018  19.25269282277451 9.292242830396077  19.824519230769237 9.623798076923077  Z " fill-rule="nonzero" fill="#f9934a" stroke="none" transform="matrix(1 0 0 1 17 483 )" />
  </g>
</svg>