<?xml version="1.0" encoding="utf-8"?>
<svg version="1.1" xmlns:xlink="http://www.w3.org/1999/xlink" width="20px" height="19px" xmlns="http://www.w3.org/2000/svg">
  <defs>
    <linearGradient gradientUnits="userSpaceOnUse" x1="21.673000000000002" y1="14.0428" x2="2.1643000000000012" y2="2.81738" id="LinearGradient3">
      <stop id="Stop4" stop-color="#916b23" stop-opacity="0.9882352941176471" offset="0" />
      <stop id="Stop5" stop-color="#d9b269" stop-opacity="0.996078431372549" offset="0.4" />
      <stop id="Stop6" stop-color="#ffefd0" offset="0.61" />
      <stop id="Stop7" stop-color="#b9892b" offset="0.93" />
      <stop id="Stop8" stop-color="#b9892b" offset="1" />
    </linearGradient>
  </defs>
  <g transform="matrix(1 0 0 1 -20 -20 )">
    <path d="M 20 0.21018999999999988  C 20 0.0941099999999997  19.9059 0  19.7898 0  L 0.16817999999999955 0  C 0.07534000000000063 0  0.00010999999999938836 0.07265999999999995  0.0002099999999991553 0.16549999999999976  C 0.003690000000000637 3.40972  0.008290000000000575 10.172899999999998  3.0000000000640625E-05 12.569600000000001  C -0.007990000000000386 14.894100000000002  1.7791599999999992 17.3524  2.7988999999999997 18.4327  C 2.878 18.5165  3.0090000000000003 18.5165  3.0914 18.4359  C 3.7864000000000004 17.7563  5.0215 16.5381  5.6897 15.844100000000001  C 5.787699999999999 15.7423  5.7569 15.574400000000002  5.643599999999999 15.489899999999999  C 4.4909 14.630299999999998  4.1934000000000005 12.0915  4.1934000000000005 10.8565  L 4.1934000000000005 4.2249  C 4.1934000000000005 4.10881  4.2875 4.014709999999999  4.403600000000001 4  L 15.690999999999999 4  C 15.807099999999998 4.014709999999999  15.9012 4.10881  15.9012 4.2249  L 15.9012 6.1272  C 15.9012 6.2432  15.807099999999998 6.337400000000001  15.690999999999999 6.337400000000001  L 6.9154 6.337400000000001  C 6.799300000000001 6.337400000000001  6.7052 6.4315  6.7052 6.547499999999999  L 6.7052 8.5481  C 6.7052 8.6061  6.727499999999999 8.6599  6.7698 8.6997  C 9.657800000000002 11.415199999999999  15.5576 16.9655  17.0615 18.3908  C 17.124 18.4501  17.214 18.4637  17.2896 18.4224  C 18.923 17.53  19.7326 14.398700000000002  19.9697 12.708400000000001  C 19.9872 12.5837  19.8893 12.475000000000001  19.7635 12.475000000000001  L 16.7029 12.475000000000001  C 16.6472 12.475000000000001  16.5937 12.4529  16.5543 12.413499999999999  L 14.9043 10.7634  C 14.771899999999999 10.631  14.8657 10.404599999999999  15.052900000000001 10.404599999999999  L 19.7898 10.404599999999999  C 19.9059 10.404599999999999  20 10.310500000000001  20 10.1944  L 20 0.21018999999999988  Z " fill-rule="nonzero" fill="url(#LinearGradient3)" stroke="none" transform="matrix(1 0 0 1 20 20 )" />
  </g>
</svg>