<?xml version="1.0" encoding="utf-8"?>
<svg version="1.1" xmlns:xlink="http://www.w3.org/1999/xlink" width="12px" height="12px" xmlns="http://www.w3.org/2000/svg">
  <defs>
    <linearGradient gradientUnits="userSpaceOnUse" x1="12.318399999999997" y1="8.647400000000001" x2="1.4925999999999995" y2="2.8866000000000005" id="LinearGradient9">
      <stop id="Stop10" stop-color="#916b23" stop-opacity="0.9882352941176471" offset="0" />
      <stop id="Stop11" stop-color="#d9b269" stop-opacity="0.996078431372549" offset="0.4" />
      <stop id="Stop12" stop-color="#ffefd0" offset="0.61" />
      <stop id="Stop13" stop-color="#b9892b" offset="0.93" />
      <stop id="Stop14" stop-color="#b9892b" offset="1" />
    </linearGradient>
  </defs>
  <g transform="matrix(1 0 0 1 -24 -34 )">
    <path d="M 9.3919 5.582799999999999  L 10.0854 4.889299999999999  C 10.183 4.791699999999999  10.3413 4.791699999999999  10.439 4.889299999999999  L 11.2467 5.696999999999999  C 11.3443 5.794699999999999  11.3443 5.952999999999999  11.2467 6.050599999999999  L 6.250800000000002 11.046500000000002  C 6.153199999999998 11.144100000000002  5.994900000000001 11.144100000000002  5.8972000000000016 11.046500000000002  L 0.9013000000000009 6.050599999999999  C 0.8036999999999992 5.952999999999999  0.8036999999999992 5.794699999999999  0.9013000000000009 5.696999999999999  L 1.7090999999999994 4.889299999999999  C 1.8066999999999993 4.791699999999999  1.9649999999999999 4.791699999999999  2.0625999999999998 4.889299999999999  L 2.7561 5.582799999999999  C 2.8537 5.680399999999999  3.0120000000000005 5.680399999999999  3.1097 5.582799999999999  L 3.9799000000000007 4.712599999999998  L 4.850200000000001 5.582799999999999  C 4.947800000000001 5.680399999999999  5.106100000000001 5.680399999999999  5.203700000000001 5.582799999999999  L 6.074000000000002 4.712599999999998  L 6.944299999999998 5.582799999999999  C 7.041899999999998 5.680399999999999  7.200199999999999 5.680399999999999  7.297799999999999 5.582799999999999  L 8.168099999999999 4.712599999999998  L 9.0384 5.582799999999999  C 9.136 5.680399999999999  9.2943 5.680399999999999  9.3919 5.582799999999999  Z M 6.074000000000002 2.618500000000001  L 7.121099999999998 3.6655000000000015  L 6.074000000000002 4.712599999999998  L 5.027000000000001 3.6655000000000015  L 6.074000000000002 2.618500000000001  Z M 7.121099999999998 3.6655000000000015  L 7.991299999999999 2.7952000000000012  C 8.088999999999999 2.6976000000000013  8.2472 2.6976000000000013  8.344899999999999 2.7952000000000012  L 9.0384 3.4887000000000015  C 9.136 3.586400000000001  9.136 3.7447000000000017  9.0384 3.8423000000000016  L 8.168099999999999 4.712599999999998  L 7.121099999999998 3.6655000000000015  Z M 6.074000000000002 2.618500000000001  L 6.944299999999998 1.7482000000000006  C 7.041899999999998 1.6506000000000007  7.041899999999998 1.4923000000000002  6.944299999999998 1.3946000000000005  L 6.250800000000002 0.7012  C 6.153199999999998 0.6035000000000004  5.994900000000001 0.6035000000000004  5.8972000000000016 0.7012  L 5.203700000000001 1.3946000000000005  C 5.106100000000001 1.4923000000000002  5.106100000000001 1.6506000000000007  5.203700000000001 1.7482000000000006  L 6.074000000000002 2.618500000000001  Z M 4.156700000000001 2.7952000000000012  L 5.027000000000001 3.6655000000000015  L 3.9799000000000007 4.712599999999998  L 3.1097 3.8423000000000016  C 3.0120000000000005 3.7447000000000017  3.0120000000000005 3.586400000000001  3.1097 3.4887000000000015  L 3.8031000000000006 2.7952000000000012  C 3.9008000000000003 2.6976000000000013  4.059100000000001 2.6976000000000013  4.156700000000001 2.7952000000000012  Z " fill-rule="nonzero" fill="url(#LinearGradient9)" stroke="none" transform="matrix(1 0 0 1 24 34 )" />
  </g>
</svg>