<?xml version="1.0" encoding="utf-8"?>
<svg version="1.1" xmlns:xlink="http://www.w3.org/1999/xlink" width="17px" height="16px" xmlns="http://www.w3.org/2000/svg">
  <g transform="matrix(1 0 0 1 -70 -23 )">
    <path d="M 13.709571336328125 13.67159821347656  C 12.167920092578125 15.21324945722656  10.142399209960939 15.984506591992186  8.117166002929688 15.984506591992186  C 6.091932796093751 15.984506591992186  4.0666995886718755 15.213249457421874  2.5250483443359375 13.67159821347656  C -0.5582541433593752 10.588008050585938  -0.5582541433593752 5.570377709765624  2.5250483443359375 2.486787546874998  C 5.60806315703125 -0.5962272658203149  10.625981172851562 -0.5973779664062523  13.709571336328125 2.486787546874998  C 16.792873824023438 5.570377709765623  16.792873824023438 10.588008050585936  13.709571336328125 13.67159821347656  Z M 12.545349916992187 3.6510089660156253  C 11.324456489257813 2.4304032134765627  9.72095508359375 1.8199564998046878  8.117166002929688 1.8199564994140616  C 6.513664597265625 1.8199564994140616  4.9098755162109375 2.430403213281249  3.6892697634765623 3.651008966015624  C 1.247770583203125 6.092508146289061  1.247770583203125 10.065877614648437  3.6892697634765623 12.507376794335938  C 6.131056619140624 14.948300624414063  10.103563061523438 14.949451324804688  12.545349916992187 12.507376794335938  C 14.986849097265624 10.0658776140625  14.986849097265624 6.0925081457031265  12.545349916992187 3.6510089660156253  Z " fill-rule="nonzero" fill="#d6af66" stroke="none" transform="matrix(1 0 0 1 70 23 )" />
  </g>
</svg>