<?xml version="1.0" encoding="utf-8"?>
<svg version="1.1" xmlns:xlink="http://www.w3.org/1999/xlink" width="28px" height="27px" xmlns="http://www.w3.org/2000/svg">
  <g transform="matrix(1 0 0 1 -20 -66 )">
    <path d="M 27.383301171874997 13.29841764648437  C 27.383301113281252 11.078123037109375  26.827238134765626 8.897371591796874  25.775191425781248 6.992073378906249  C 24.75444350585937 5.1433468164062495  23.293444062499997 3.5923783691406244  21.550755605468748 2.507174130859375  C 21.37318598632812 2.394150771484375  21.215163125 2.318871806640624  21.02092484375 2.318871806640624  C 20.52997771484375 2.318871806640624  20.130558505859376 2.74167513671875  20.130558505859376 3.261372783203125  C 20.130558505859376 3.6141136328124994  20.31388419921875 3.9221248046875004  20.631548837890623 4.105180673828125  C 23.703715917968747 6.008080498046876  25.612191962890623 9.53078212890625  25.612191962890623 13.298477617187501  C 25.612191962890623 17.0626655078125  23.705544658203124 20.583778193359375  20.638084414062497 22.486618046874998  C 20.3841865625 22.634567734375  20.112870517578123 22.937542333984375  20.112870517578123 23.344306533203124  C 20.112870517578123 23.864004179687498  20.51300922851562 24.286807509765623  21.004855742187495 24.286807509765623  C 21.212075234374996 24.286807509765623  21.375704316406242 24.197318183593747  21.525902480468748 24.105400498046873  C 23.276175781249997 23.021335498046874  24.74326112304687 21.46928778320312  25.76856596679687 19.61711356445312  C 26.824929746093748 17.70878740234375  27.383301171874997 15.523838798828123  27.383301171874997 13.29841764648437  Z M 18.970824804687506 19.72977721679688  C 21.167765263671875 18.428419521484372  22.532499951171875 15.964090351562497  22.532499951171875 13.298507617187502  C 22.532499951171875 11.988425839843751  22.203413076171874 10.702147949218752  21.58088515625 9.578749609375002  C 20.976674814453126 8.488448828125001  20.11230086914063 7.575178017578127  19.081209921875004 6.9376602636718765  L 19.078032089843752 6.935771552734376  C 19.048022421875004 6.919222773437503  18.77919470703125 6.774031210937503  18.579530087890628 6.774031210937503  C 18.085015361328125 6.774031210937503  17.68271811523438 7.198273574218751  17.68271811523438 7.719710048828128  C 17.68271811523438 8.061478339843752  17.85264291992188 8.378093652343752  18.126717089843755 8.546249658203129  C 19.735006660156255 9.515582441406254  20.7341392578125 11.336487871093754  20.7341392578125 13.298447675781253  C 20.7341392578125 15.301359707031253  19.704127607421878 17.141631982421877  18.046011816406253 18.10119141601563  L 18.043073808593753 18.10299018554688  C 17.77520541992188 18.274773730468755  17.615293847656254 18.57708874023438  17.615293847656254 18.911661894531257  C 17.615293847656254 19.434027724609383  18.01687159179688 19.859019589843754  18.50976740234376 19.859019589843754  L 18.514534179687505 19.85904956054688  C 18.72247317382813 19.85904956054688  18.957573798828133 19.736852412109382  18.967467089843755 19.73166592773438  L 18.970824804687506 19.72977721679688  Z M 15.726694267578129 1.2301299414062488  C 15.726664326171877 0.7937758105468751  15.495760888671875 0.4041300097656251  15.124012929687497 0.21318944335937484  C 14.979331015624997 0.13913965820312457  14.817800527343751 0.09998620117187507  14.656989570312502 0.09998620117187507  C 14.415113574218752 0.09998620117187507  14.177734501953124 0.1876467578125003  13.9887726171875 0.34671891601562477  L 13.984515517578126 0.3502864843750002  C 13.830240107421876 0.48030833007812523  12.433247275390626 1.6548519824218753  10.912018671875 2.8435460546874998  C 8.163602099609376 4.992848828124999  7.330167177734374 5.376678583984375  7.166358242187499 5.438526660156249  L 3.6755849609375 5.438526689453125  C 3.652650517578126 5.438526689453125  3.6320544628906255 5.440085634765625  3.6128974707031247 5.4417644921875  L 1.8264386914062503 5.4417644921875  C 1.334592177734375 5.4417644921875  0.9344834375000003 5.864208085937499  1 6.38348599609375  L 1 20.226360537109375  C 0.9344834375000003 20.745128798828123  1.3346221484375005 21.16718265625  1.8264386914062503 21.16718265625  L 7.815208291015625 21.168921484374998  C 7.974340390625001 21.235146572265624  8.758878476562499 21.631268007812498  11.194876865234376 23.7397984375  C 12.026333134765625 24.4590108203125  12.98712171875 25.324374091796876  13.900212646484375 26.176516328125  C 13.9244362109375 26.199121005859375  13.940205517578125 26.21378107421875  13.946861005859375 26.219866943359374  C 14.142238525390628 26.404961435546873  14.394247666015627 26.506862353515626  14.656479892578128 26.506862353515626  C 14.80607846679688 26.506862353515626  14.958195341796875 26.47217587890625  15.096521533203127 26.406430439453125  C 15.491383818359377 26.217948232421872  15.756673935546875 25.804018867187498  15.756673935546875 25.376628642578122  C 15.756763876953123 25.330429960937497  15.765218134765627 20.75733053710937  15.765218134765627 20.66616232421875  C 15.765218134765627 20.573135400390626  15.72708400390625 1.4234088964843745  15.726694267578129 1.2301299414062488  Z M 13.952407285156252 2.9202640527343764  C 13.953876259765625 4.67650333984375  13.96673755859375 20.444402705078122  13.96673755859375 20.514045478515627  L 13.953066816406249 23.529311142578123  C 13.49815525390625 23.121407705078127  13.057963701171873 22.734669912109375  12.642715244140625 22.37824158203125  C 9.309245322265625 19.512364638671873  8.4736818359375 19.272557236328126  7.9035883789062495 19.272557236328126  C 7.892286054687498 19.272557236328126  7.882992353515623 19.27396626953125  7.876186953125 19.27501556640625  C 7.874418154296874 19.275285390625  7.87264935546875 19.275645126953123  7.872109707031249 19.275765068359373  C 7.870250966796874 19.275615156249998  7.8684821679687476 19.275255419921876  7.866713369140625 19.27501556640625  C 7.85993796875 19.27396626953125  7.850644267578126 19.272557236328126  7.8393419140625 19.272557236328126  L 3.3369045898437495 19.27255720703125  C 2.8190057128906245 19.27255720703125  2.7071815332031246 19.147062285156252  3 18.565876328125004  L 3 7.942009316406251  C 2.7071815332031246 7.5341658203124995  2.750771972656249 7.342026103515624  3.1491119140625 7.342026103515624  L 7.205331787109377 7.342026103515624  C 7.760255556640627 7.342026103515624  8.60688154296875 7.105006796875001  12.249801640625002 4.272467265625002  C 12.805804677734375 3.840160380859376  13.391727412109375 3.374815878906251  13.952407285156252 2.9202640527343764  Z " fill-rule="nonzero" fill="#d6af66" stroke="none" transform="matrix(1 0 0 1 20 66 )" />
  </g>
</svg>