<?xml version="1.0" encoding="utf-8"?>
<svg version="1.1" xmlns:xlink="http://www.w3.org/1999/xlink" width="25px" height="25px" xmlns="http://www.w3.org/2000/svg">
  <g transform="matrix(1 0 0 1 -323 -342 )">
    <path d="M 24.66259765625 7.710510253906248  L 18.73990478515625 13.63316650390625  C 18.316857910156248 14.056213378906248  17.68228759765625 14.056213378906248  17.259240722656248 13.63316650390625  L 11.36683349609375 7.710510253906248  C 10.94378662109375 7.287463378906249  10.94378662109375 6.652893066406248  11.36683349609375 6.2298461914062475  L 17.289489746093754 0.33743896484374925  C 17.712536621093754 -0.08560791015625124  18.34710693359375 -0.08560791015625124  18.770153808593754 0.33743896484374925  L 24.662561035156255 6.260058593749998  C 25.085607910156256 6.652893066406247  25.085607910156256 7.317675781249997  24.662561035156255 7.710510253906247  Z M 9.43287353515625 24.964758300781252  L 1.0626464843749994 24.964758300781252  C 0.48850097656250036 24.964758300781252  0.005029296874999867 24.5114990234375  0.005029296874999867 23.90714111328125  L 0.005029296874999867 15.5670166015625  C 0.005029296874999867 14.992907714843748  0.45828857421875036 14.509399414062498  1.0626464843749994 14.509399414062498  L 9.432910156250001 14.509399414062498  C 10.007055664062499 14.509399414062498  10.49052734375 14.962695312500001  10.49052734375 15.5670166015625  L 10.49052734375 23.937316894531254  C 10.49052734375 24.51146240234375  10.037268066406249 24.9647216796875  9.432910156250001 24.9647216796875  Z M 9.43287353515625 12.424450683593749  L 1.0626464843749994 12.424450683593749  C 0.48850097656250036 12.424450683593749  0.005029296874999867 11.97119140625  0.005029296874999867 11.366833496093749  L 0.005029296874999867 3.0267822265625  C 0.005029296874999867 2.452673339843751  0.45828857421875036 1.9691650390625002  1.0626464843749994 1.9691650390625002  L 9.432910156250001 1.9691650390625002  C 10.007055664062499 1.9691650390625002  10.49052734375 2.422424316406251  10.49052734375 3.0267822265625  L 10.49052734375 11.3970458984375  C 10.49052734375 11.97119140625  10.037268066406249 12.42445068359375  9.432910156250001 12.42445068359375  Z M 13.602917480468749 14.50947265625  L 21.973181152343745 14.50947265625  C 22.5472900390625 14.50947265625  23.03079833984375 14.962731933593748  23.03079833984375 15.567089843749999  L 23.03079833984375 23.937353515624995  C 23.03079833984375 24.511499023437494  22.5775390625 24.994970703125  21.973181152343745 24.994970703125  L 13.602954101562501 24.994970703125  C 13.028808593750002 24.994970703125  12.545336914062503 24.541711425781248  12.545336914062503 23.937353515624995  L 12.545336914062503 15.567089843749999  C 12.575549316406253 14.962731933593748  13.028808593750002 14.50947265625  13.602954101562501 14.50947265625  Z " fill-rule="nonzero" fill="#ffffff" stroke="none" transform="matrix(1 0 0 1 323 342 )" />
  </g>
</svg>