<?xml version="1.0" encoding="utf-8"?>
<svg version="1.1" xmlns:xlink="http://www.w3.org/1999/xlink" width="25px" height="25px" xmlns="http://www.w3.org/2000/svg">
  <g transform="matrix(1 0 0 1 -225 -342 )">
    <path d="M 17.92567661830357 1  L 17.92567661830357 0.78125  C 19.99620710100446 0.78125  21.66712297712054 2.494070870535715  21.700343540736604 4.606584821428572  L 21.70086669921875 4.670697893415179  L 21.70086669921875 7.965183803013394  C 23.117946079799108 8.45721435546875  24.14035470145089 9.794407435825892  24.16593715122768 11.374136788504465  L 24.166434151785715 11.43487548828125  L 24.166434151785715 20.70411900111607  C 24.166434151785715 22.711582728794646  22.556753976004465 24.342790876116073  20.558785574776785 24.375200544084823  L 20.49809919084821 24  L 4.5019008091517865 24  C 2.4962158203125004 24.375697544642858  0.8664725167410717 22.764578683035715  0.8340890066964288 20.76483154296875  L 0.8335658482142858 20.70411900111607  L 0.8335658482142858 11.434849330357142  C 0.8335658482142858 9.784205845424108  1.92181396484375 8.38797433035714  3.4193812779017856 7.92573765345982  L 3.41943359375 4.67067173549107  C 3.41943359375 2.5502580915178568  5.069632393973214 0.8162231445312489  7.131975446428572 0.781747000558035  L 7.194597516741072 1  L 17.92567661830357 1  Z M 22.60287039620535 20.70411900111607  L 22.602870396205358 12.255841936383929  L 21.554643903459823 13.274954659598212  C 21.500319668335113 13.350704963782063  21.432961340448212 13.416194441283146  21.355712890624996 13.468366350446429  L 13.490234375000002 21.115007672991073  C 12.965166364397321 21.62547956194196  12.135044642857142 21.6373291015625  11.595799037388392 21.146004813058035  L 11.577933175223214 21.12944684709821  L 2.397103445870536 12.469369070870533  L 2.397103445870536 20.70411900111607  C 2.397103445870536 21.855957031249996  3.3206874302455356 22.79186139787946  4.467058454241072 22.810485839843746  L 4.501874651227678 22.810747419084816  L 20.49812534877232 22.810747419084816  C 21.648917061941965 22.810747419084816  22.584010532924108 21.88632638113839  22.60260881696428 20.738961356026785  L 22.60287039620535 20.70411900111607  Z M 17.92567661830357 2.3461739676339284  L 7.194597516741072 2.3461739676339284  C 5.991777692522321 2.3461739676339284  5.0029296875 3.3600812639508923  4.983258928571428 4.632088797433035  L 4.98297119140625 4.670697893415178  L 4.982945033482142 12.758126395089283  L 12.524666922433033 19.872035435267858  L 20.137302943638392 12.471147809709821  L 20.137302943638392 4.670697893415179  C 20.137302943638392 3.393563406808036  19.16046142578125 2.366891043526786  17.962062290736608 2.3464878627232144  L 17.925676618303573 2.346200125558036  Z M 13.965916224888389 5.710763113839288  C 14.513244628906245 5.602024623325896  15.057381766183031 5.6574532645089315  15.538452148437498 5.873857770647322  C 15.99812534877232 6.079616001674108  16.38191441127232 6.422886439732142  16.649169921875 6.8663417271205365  C 16.924979073660708 7.322614397321428  17.07036481584821 7.881216866629466  17.07036481584821 8.479239327566965  C 17.07036481584821 9.256391252790177  16.833033970424104 10.022870744977677  16.36587960379464 10.757359095982142  C 16.000270298549104 11.330897739955358  15.494611467633925 11.885236467633929  14.86174665178571 12.406511579241071  L 14.79794747488839 12.4586181640625  C 13.756391252790179 13.301688058035715  12.74525669642857 13.759713309151786  12.701259068080356 13.77956717354911  L 12.561209542410712 13.842450823102679  L 12.397460937499998 13.768633161272323  C 12.229867117745535 13.690630231584825  11.249808175223212 13.221461704799106  10.259573800223212 12.406511579241073  C 9.626735142299104 11.88523646763393  9.120003836495535 11.330897739955358  8.755493164062496 10.757359095982144  C 8.287240164620533 10.022844587053573  8.049909319196425 9.256391252790179  8.049909319196425 8.479265485491073  C 8.049909319196425 7.880144391741073  8.195295061383925 7.32261439732143  8.47110421316964 6.866367885044646  C 8.738359723772318 6.422886439732145  9.123221261160712 6.07961600167411  9.58182198660714 5.873857770647325  C 10.062892368861604 5.658525739397325  10.607029506138389 5.602024623325896  11.154357910156246 5.710763113839288  C 11.63864571707589 5.8077828543526815  12.119689941406246 6.034859793526788  12.560137067522318 6.373840332031253  C 13.00058419363839 6.0348336356026815  13.481628417968745 5.8077828543526815  13.965916224888389 5.710763113839288  Z M 14.201939174107139 6.891139439174107  C 13.915274483816962 6.948582240513393  13.614301409040172 7.087794712611606  13.325387137276781 7.303780691964286  L 13.293317522321427 7.328107561383927  L 12.560137067522318 7.892412458147321  L 11.826956612723212 7.328107561383927  C 11.528285435267852 7.098205566406249  11.215619768415177 6.95070103236607  10.920218331473212 6.891531808035714  C 10.61369977678571 6.830636160714286  10.32303292410714 6.86079624720982  10.073747907366068 6.972359793526785  C 9.839791434151781 7.077331542968748  9.642168317522318 7.2538190569196415  9.500156947544639 7.489501953124998  C 9.34184919084821 7.751368931361606  9.252650669642854 8.09309605189732  9.252650669642854 8.479239327566964  C 9.252650669642854 9.019714355468746  9.421003069196425 9.563354492187496  9.770263671874996 10.111232212611606  C 10.06202915736607 10.570251464843748  10.48280552455357 11.031337193080356  11.02348981584821 11.476675851004462  C 11.435058593749996 11.815420968191962  11.87877546037946 12.115033830915177  12.32262311662946 12.370413643973212  C 12.390950694498928 12.409737836001984  12.45975997187292 12.448219060314674  12.529035295758925 12.485848563058035  L 12.56139264787946 12.5032958984375  L 12.593462262834818 12.486031668526785  L 12.674159458705356 12.44166782924107  C 12.701468331473212 12.426496233258929  12.729195731026785 12.410879952566962  12.757289341517856 12.39487130301339  L 12.799743652343748 12.370570591517858  C 13.242885044642858 12.115426199776785  13.68623570033482 11.81581333705357  14.097490583147318 11.477015904017856  C 14.637128557477677 11.032514299665177  15.057826450892856 10.57124546595982  15.351292201450889 10.110892159598214  C 15.699323381696425 9.563694545200892  15.86764962332589 9.01960972377232  15.86764962332589 8.479239327566964  C 15.86764962332589 8.093723842075892  15.778189522879464 7.751002720424107  15.61928013392857 7.4881155831473185  C 15.482709612165177 7.261483328683036  15.294948032924104 7.089939662388392  15.072317940848215 6.984261648995535  L 15.045375279017856 6.97186279296875  C 14.79745047433036 6.860273088727677  14.507699148995536 6.830426897321427  14.201939174107142 6.891165597098214  Z M 2.6069161551339253 10.516889299665179  L 3.4194074358258892 11.28326416015625  L 3.4194074358258892 9.6278076171875  C 3.0681573541918783 9.839170135317994  2.7858924153269524 10.14804395187115  2.6069423130580325 10.516863141741073  Z M 21.700892857142854 9.705836704799108  L 21.700840541294642 10.95111083984375  L 22.167550223214285 10.497401646205358  C 22.213710679312676 10.452457932970157  22.265238437711094 10.413379421570982  22.320966448102677 10.381051199776788  C 22.166096145535082 10.113366570712293  21.95442838696784 9.882885686046121  21.70086669921875 9.705836704799108  Z " fill-rule="nonzero" fill="#ffffff" stroke="none" transform="matrix(1 0 0 1 225 342 )" />
  </g>
</svg>