<?xml version="1.0" encoding="utf-8"?>
<svg version="1.1" xmlns:xlink="http://www.w3.org/1999/xlink" width="25px" height="25px" xmlns="http://www.w3.org/2000/svg">
  <g transform="matrix(1 0 0 1 -28 -342 )">
    <path d="M 25 8.946781249999999  C 25 8.5035  24.837895825195314 8.166020825195313  24.541989575195313 7.85359375  C 24.246739575195313 7.54028125  23.854489575195316 7.447020825195312  23.43782290039063 7.447020825195312  L 2.60440625 7.447020825195312  C 2.1869270751953125 7.447020825195312  1.7935312500000002 7.215166650390627  1.4998333251953124 6.902749999999999  C 1.2038541503906248 6.5886249999999995  1.0423124999999998 6.112875  1.0423124999999998 5.670249999999999  C 1.0423124999999998 5.227052075195311  1.2038541748046876 4.850343749999999  1.4989374999999998 4.537031249999999  C 1.7935312499999998 4.223718749999999  2.1869270751953125 4.1304583251953115  2.60440625 4.1304583251953115  L 6.771239575195312 4.1304583251953115  C 7.058677075195312 4.1304583251953115  7.291906249999999 3.8828229003906243  7.291906249999999 3.5779687499999984  C 7.291906249999999 3.2729583251953116  7.0586666748046865 3.0245833251953114  6.771239575195312 3.0245833251953114  L 2.60440625 3.0245833251953123  C 1.9088541748046874 3.0245833251953123  1.2546354248046874 3.2529375  0.7619583251953124 3.7755625  C 0.2706666748046875 4.297114575195312  8.33251953125E-05 4.932864575195312  8.33251953125E-05 5.67025  C 8.33251953125E-05 5.7102916748046875  0.00903125 5.748614575195313  0.0107395751953125 5.78865625  L 0 5.78865625  L 0 21.66032292480469  C 8.33251953125E-05 22.399583349609376  0.2706770751953125 23.172041674804685  0.76196875 23.6936875  C 1.2546458251953125 24.216145825195312  1.9088645751953126 24.58203125  2.6044166748046873 24.58203125  L 23.437833349609374 24.58203125  C 23.85450002441406 24.58203125  24.247729174804686 24.3305625  24.54200002441406 24.01725  C 24.836270874023437 23.703937500000002  25 23.208989575195314  25 22.76530207519531  L 25 8.946781249999999  Z M 24 8.94677080078125  L 24 22.766281250000002  C 23.958656249999997 22.913583325195315  23.904291674804686 23.1311875  23.80533332519531 23.235354174804687  C 23.706697900390623 23.340333349609374  23.575843749999997 23.476072924804686  23.43782290039062 23  L 2.60440625 23  C 2.1869270751953125 23.476072924804686  1.7935312500000002 23.225583349609373  1.4989374999999998 22.91178125  C 1.2038541748046876 22.59928125  1.0423124999999998 22.10367707519531  1 21.660312499999996  L 1 7.916989575195313  C 1.4922604248046876 8.296791650390626  2.0311666748046875 8.552729150390626  2.60440625 9  L 23.437822924804685 9  C 23.575843749999997 8.552729150390626  23.70670834960937 8.531083325195313  23.805333349609374 8.635249975585937  C 23.903312524414062 8.739416650390625  23.95865627441406 8.799479150390626  24 8.94677080078125  Z M 20.207697900390627 3.5779687500000006  C 20.207697900390627 3.8837187500000003  20.440104174804688 4.1295625  20.72852082519531 4.1295625  L 20.8326875 4.1295625  C 20.97233332519531 4.1295625  21.102874999999997 4.1080000000000005  21.201177075195314 4.2130625  C 21.299489575195313 4.317885424804688  21.353843750000003 4.377041674804689  21.353843750000003 4.524583325195313  L 21.353843750000003 5.3496145751953135  C 21.353843750000003 5.654468750000001  21.586916674804687 5.902833325195314  21.875333325195314 5.902833325195314  C 22.162770825195317 5.902833325195314  22.395520825195312 5.655354150390626  22.395520825195312 5.3496145751953135  L 22.395520825195312 4.524583325195313  C 22.395520825195312 4.081302075195313  22.23373957519531 3.743739575195313  21.938166650390627 3.431322900390626  C 21.64259372558594 3.1180937255859384  21.25001040039063 3.024583325195313  20.832697900390627 3.024583325195313  L 20.728531225585943 3.024583325195313  C 20.440114550781256 3.024583325195313  20.207697900390627 3.272218750000001  20.207697900390627 3.5779687500000006  Z M 7.059166674804687 5.678708325195313  L 7.522864575195312 6.670250000000001  L 15.337562500000004 1.581385424804687  C 15.46744792480469 1.513104174804687  15.614260424804687 1.505541674804687  15.749677075195315 1.5580312499999995  C 15.885750000000002 1.611416674804687  15.991541650390628 1.7198124999999995  16.047208325195314 1.8613333251953121  L 18.509770825195318 6.393645825195312  L 19.469406250000002 5.964447900390625  L 17.00716667480469 1.4314062255859379  C 16.84082292480469 1.0122187255859376  16.514 0.6806770507812503  16.111333349609374 0.5215729003906253  C 15.708333349609374 0.36222915039062525  15.256510424804686 0.3880312255859377  14.872395849609374 0.5904999755859378  L 7.059166674804687 5.678708325195313  Z M 21.249677099609375 20.132979150390625  C 21.24967707519531 19.780604174804687  20.969729174804687 19.496583325195314  20.624354174804687 19.496583325195314  L 15.625 19.496583325195314  C 15.279625 19.496583325195314  15 19.781416650390625  15 20.132979150390625  C 15 20.483729150390626  15.279625 20.76905207519531  15.625 20.76905207519531  L 20.624354174804687 20.76905207519531  C 20.969729174804687 20.76905207519531  21.249677099609375 20.483729150390626  21.249677099609375 20.132979150390625  Z " fill-rule="nonzero" fill="#ffffff" stroke="none" transform="matrix(1 0 0 1 28 342 )" />
  </g>
</svg>