<?xml version="1.0" encoding="utf-8"?>
<svg version="1.1" xmlns:xlink="http://www.w3.org/1999/xlink" width="21px" height="24px" xmlns="http://www.w3.org/2000/svg">
  <g transform="matrix(1 0 0 1 -335 -22 )">
    <path d="M 9.999162946428573 1.6873779296875  L 9.841238839285715 1.68878173828125  C 5.8404017857142865 1.7738525390625006  2.6227678571428568 5.06409912109375  2.6227678571428568 9.109875488281249  L 2.6227678571428568 14.8551025390625  L 0.3973214285714276 17.84072265625  C -0.058314732142857394 18.4522216796875  0.06473214285714235 19.319494628906252  0.6724330357142858 19.77825927734375  C 0.9104415751211725 19.95793197293026  1.199947976051813 20.055070084027097  1.497488839285714 20  L 18.502790178571427 20  C 18.799665178571427 20.055090332031252  19.088727678571427 19.958227539062502  19.326450892857142 19.779382324218748  L 19.396484375000004 19.722387695312502  C 19.946986607142858 19.2484619140625  20.037667410714285 18.42611083984375  19.60407366071429 17.8424072265625  L 17.37555803571429 14.84415283203125  L 17.37555803571429 9.109875488281249  C 17.37555803571429 5.010473632812501  14.072823660714288 1.6873779296875  9.999162946428573 1.6873779296875  Z M 4.373046874999999 9.109875488281249  C 4.373046874999999 5.9833129882812495  6.892020089285715 3.4485961914062506  9.999162946428573 3.4485961914062506  C 13.10630580357143 3.4485961914062506  15.625279017857142 5.9833129882812495  15.625279017857142 9.109875488281249  L 15.625279017857142 15.14849853515625  L 15.628906249999998 15.227954101562503  C 15.645926339285714 15.412695312500004  15.719866071428573 15.587890625000005  15.842075892857144 15.728271484375005  L 15.878627232142858 15.770104980468755  L 17.75390625 18  L 2.2472098214285703 18  L 4.198102678571428 15.677172851562503  C 4.311680170558482 15.52471884942722  4.373064989397972 15.33931491324298  4.373046874999999 15.148779296875  L 4.373046874999999 9.109875488281249  Z M 11.863002232142856 20.683996582031252  L 8.362444196428573 20.683996582031252  C 8.362444196428573 21.656835937500002  9.146205357142858 22.445214843749998  10.112723214285712 22.445214843749998  C 11.079520089285712 22.445214843749998  11.863002232142856 21.65655517578125  11.863002232142856 20.683996582031252  Z M 8.862444196428575 1.8131591796875006  L 11.363002232142858 1.8131591796875006  C 11.363281250000002 1.1182739257812506  10.803850446428573 0.554785156250001  10.113281250000002 0.5545043945312507  C 9.422712053571429 0.5542236328125003  8.862723214285715 1.117150878906251  8.862444196428575 1.812036132812501  L 8.862444196428575 1.8131591796875006  Z " fill-rule="nonzero" fill="#d6af66" stroke="none" transform="matrix(1 0 0 1 335 22 )" />
  </g>
</svg>