<?xml version="1.0" encoding="utf-8"?>
<svg version="1.1" xmlns:xlink="http://www.w3.org/1999/xlink" width="25px" height="20px" xmlns="http://www.w3.org/2000/svg">
  <g transform="matrix(1 0 0 1 -126 -344 )">
    <path d="M 20.57373046875 19.423828125  L 12.5 19.423828125  C 12.175048828125 19.423828125  11.91162109375 19.1604736328125  11.91162109375 18.835595703125  C 11.91162109375 18.510742187499996  12.175048828125 18.2473876953125  12.5 18.2473876953125  L 20.57373046875 18.2473876953125  C 21.949755859375 18.2473876953125  23.0908203125 17.0467041015625  23 15.5677978515625  L 23 4.456616210937499  C 23.0908203125 2.9777343750000003  21.949755859375003 1.7770507812499994  20.57373046875 2  L 4.42626953125 2  C 3.0502441406250003 1.7770507812499994  1.9091796875000004 2.9777343750000003  2 4.456616210937499  L 2 15.5677978515625  C 1.9091796875000004 17.046679687500003  3.0502441406250003 18.24736328125  4.42626953125 18.24736328125  L 6.910400390625 18.24736328125  C 7.2353515625 18.24736328125  7.498779296875001 18.5107421875  7.498779296875001 18.835595703125  C 7.498779296875001 19.160473632812504  7.2353515625 19.423828125000004  6.910400390625 19.423828125000004  L 4.42626953125 19.423828125000004  C 2.386474609375 19.423828125  0.732421875 17.683349609375004  1 15.5677978515625  L 1 4.456616210937499  C 0.732421875 2.341064453125  2.386474609375 0.6005859375  4.42626953125 1  L 20.57373046875 1  C 22.613525390625 0.6005859375  24.267578125 2.3410644531250004  24 4.456616210937499  L 24 15.5677978515625  C 24.267578125 17.683349609375004  22.613525390625 19.423828125  20.57373046875 19.423828125  Z " fill-rule="nonzero" fill="#ffffff" stroke="none" transform="matrix(1 0 0 1 126 344 )" />
  </g>
</svg>