<?xml version="1.0" encoding="utf-8"?>
<svg version="1.1" xmlns:xlink="http://www.w3.org/1999/xlink" width="17px" height="4px" xmlns="http://www.w3.org/2000/svg">
  <g transform="matrix(1 0 0 1 -130 -348 )">
    <path d="M 16.44384765625 0.5948750000000004  C 16.44384765625 0.846875  16.22378564453125 1.053125  15.954915039062499 1  L 1.0948896484374997 1  C 0.8260190429687497 1.053125  0.60595703125 0.846875  0.60595703125 0.5948749999999989  L 0.60595703125 0.5738749999999996  C 0.60595703125 0.321875  0.8260190429687497 0.115625  1.0948896484374997 0.115625  L 15.954915039062499 0.115625  C 16.22378564453125 0.115625  16.44384765625 0.321875  16.44384765625 0.573875000000001  L 16.44384765625 0.5948750000000004  Z M 16.39404296875 3.4308125000000005  C 16.39404296875 3.6828125  16.174080566406253 3.8890625  15.9053095703125 3.8890625  L 10.2338505859375 3.8890625  C 9.965079589843748 3.8890625  9.7451171875 3.6828125  9.7451171875 3.430812499999999  L 9.7451171875 3.4098124999999997  C 9.7451171875 3.1578125  9.965079589843748 2.9515625  10.2338505859375 2.9515625  L 15.9053095703125 2.9515625  C 16.174080566406253 2.9515625  16.39404296875 3.1578125  16.39404296875 3.409812500000001  L 16.39404296875 3.4308125000000005  Z " fill-rule="nonzero" fill="#ffffff" stroke="none" transform="matrix(1 0 0 1 130 348 )" />
  </g>
</svg>