<svg t="1745211037775" class="icon" viewBox="0 0 1024 1024" version="1.1" xmlns="http://www.w3.org/2000/svg" p-id="131220" width="200" height="200"><path d="M512 493.243992m-493.243992 0a493.243992 493.243992 0 1 0 986.487984 0 493.243992 493.243992 0 1 0-986.487984 0Z" fill="#FFD93B" p-id="131221"></path><path d="M1005.243992 493.243992c0 272.509786-220.862205 493.243992-493.243992 493.243993a492.156001 492.156001 0 0 1-383.932881-183.582509 490.524014 490.524014 0 0 0 309.661484 109.279113c272.349787 0 493.243992-220.734207 493.243993-493.243993a490.556014 490.556014 0 0 0-109.279112-309.661484c111.871091 90.495265 183.550509 228.89414 183.550508 383.96488z" fill="#F4C534" p-id="131222"></path><path d="M723.198284 944.888323c-11.263908 52.799571-64.735474 92.447249-123.007001 74.911391-58.271527-16.959862-118.079041-16.639865-177.246559 0-55.263551 15.99987-110.175105-19.423842-122.079009-75.231389-41.631662-200.542371 50.943586-430.972498 210.846287-430.972498 163.454672 0 252.413949 233.694101 211.486282 431.292496z" fill="#FFD93B" p-id="131223"></path><path d="M680.67063 936.088394c-6.495947 30.81575-37.599695 51.103585-67.903449 42.175658a355.229114 355.229114 0 0 0-201.534362 0c-30.303754 8.927927-61.407501-11.359908-67.903449-42.463655-37.055699-179.070545 43.807644-378.684923 168.510631-378.684924 125.822978 0 205.630329 200.414372 168.830629 378.972921z" fill="#3E4347" p-id="131224"></path><path d="M634.559004 946.264312c14.559882-38.399688 11.967903-83.327323-15.327875-121.567013a69.375436 69.375436 0 0 0-81.983334-24.511801c-20.063837 7.743937-42.335656 10.175917-63.743482 8.447932-82.559329-6.719945-109.695109 71.711417-85.407306 137.630882 81.21534-24.6398 163.390672-23.42381 246.461997 0z" fill="#E24B4B" p-id="131225"></path><path d="M512 894.872729c-73.503403 0-136.766889 20.223836-165.950652 49.407599 9.919919 26.111788 37.791693 42.079658 65.183471 33.983724a355.229114 355.229114 0 0 1 201.534362 0c27.455777 8.095934 55.35955-7.903936 65.24747-33.919725-29.119763-29.247762-92.447249-49.471598-166.014651-49.471598zM274.46593 476.604128c-87.551289-8.927927-141.182853-70.879424-118.975033-158.430713 22.495817-87.551289 111.903091-158.462712 200.062374-158.462713 87.871286 0 122.783002 68.735442 128.958952 159.038708 7.39194 110.687101-108.639117 168.350632-210.046293 157.854718z" fill="#FFFFFF" p-id="131226"></path><path d="M423.232721 318.653411a79.455354 79.455354 0 0 1-79.071357 79.583353 79.679353 79.679353 0 0 1-79.327356-79.583353 79.231356 79.231356 0 0 1 158.398713 0z" fill="#3E4347" p-id="131227"></path><path d="M362.476191 300.128193a23.487809 14.303884 44.999 1 0 20.228393-20.2291 23.487809 14.303884 44.999 1 0-20.228393 20.2291Z" fill="#FFFFFF" p-id="131228"></path><path d="M732.28621 479.484104c88.735279-9.087926 150.622776-72.191413 140.094862-161.310689-10.847912-89.119276-90.783262-161.342689-178.942546-161.342689-87.871286 0-131.934928 69.983431-150.14278 161.950684-22.17582 112.671085 86.1433 171.390607 188.990464 160.702694z" fill="#FFFFFF" p-id="131229"></path><path d="M762.941961 318.653411a79.455354 79.455354 0 0 1-79.071357 79.583353 79.679353 79.679353 0 0 1-79.327356-79.583353 79.231356 79.231356 0 0 1 158.398713 0z" fill="#3E4347" p-id="131230"></path><path d="M702.140176 300.160193a23.487809 14.303884 44.999 1 0 20.228394-20.229099 23.487809 14.303884 44.999 1 0-20.228394 20.229099Z" fill="#FFFFFF" p-id="131231"></path></svg>