<svg t="1746528094988" class="icon" viewBox="0 0 1024 1024" version="1.1" xmlns="http://www.w3.org/2000/svg" p-id="4524" width="200" height="200"><path d="M513 960.8c-246.1 0-446.3-200.2-446.3-446.3S266.9 68.1 513 68.1s446.3 200.2 446.3 446.3S759.1 960.8 513 960.8z m0-846.4c-220.6 0-400 179.5-400 400s179.5 400 400 400 400-179.5 400-400-179.4-400-400-400z" fill="#7D7D7D" p-id="4525"></path><path d="M314.6 736c-5.9 0-11.8-2.3-16.4-6.8-9-9-9-23.7 0-32.7L695 299.7c9-9 23.7-9 32.7 0 9 9 9 23.7 0 32.7L331 729.2c-4.5 4.5-10.4 6.8-16.4 6.8z" fill="#7D7D7D" p-id="4526"></path><path d="M711.4 736c-5.9 0-11.8-2.3-16.4-6.8L298.3 332.5c-9-9-9-23.7 0-32.7 9-9 23.7-9 32.7 0l396.7 396.7c9 9 9 23.7 0 32.7-4.5 4.5-10.4 6.8-16.3 6.8z" fill="#7D7D7D" p-id="4527"></path></svg>