<?xml version="1.0" encoding="utf-8"?>
<svg version="1.1" xmlns:xlink="http://www.w3.org/1999/xlink" width="16px" height="11px" xmlns="http://www.w3.org/2000/svg">
  <g transform="matrix(1 0 0 1 -1841 -226 )">
    <path d="M 14.870000000000005 0.5000000000000036  C 14.510000000000002 0.14000000000000234  13.910000000000004 0.14000000000000234  13.55 0.5  L 5.719999999999999 8.329999999999998  L 2.119999999999999 4.73  C 1.7599999999999998 4.369999999999999  1.1600000000000001 4.369999999999999  0.8000000000000007 4.73  C 0.4399999999999995 5.09  0.4399999999999995 5.690000000000002  0.8000000000000007 6.050000000000001  L 5.030000000000001 10.280000000000001  C 5.210000000000001 10.46  5.48 10.55  5.720000000000001 10.55  C 5.960000000000001 10.55  6.230000000000002 10.46  6.410000000000002 10.280000000000001  L 14.870000000000005 1.820000000000002  C 15.230000000000004 1.4600000000000026  15.230000000000004 0.860000000000003  14.870000000000005 0.5000000000000036  Z " fill-rule="nonzero" fill="#f59a23" stroke="none" transform="matrix(1 0 0 1 1841 226 )" />
  </g>
</svg>