<?xml version="1.0" encoding="utf-8"?>
<svg version="1.1" xmlns:xlink="http://www.w3.org/1999/xlink" width="28px" height="28px" xmlns="http://www.w3.org/2000/svg">
  <g transform="matrix(1 0 0 1 -1835 -305 )">
    <path d="M 27.32 13.939999999999998  C 27.32 6.47  21.23 0.3799999999999999  13.76 0.3799999999999999  C 6.29 0.3799999999999999  0.19999999999999996 6.47  0.19999999999999996 13.94  C 0.19999999999999996 21.41  6.29 27.5  13.76 27.5  C 21.23 27.5  27.32 21.409999999999997  27.32 13.939999999999998  Z M 25.79 13.94  C 25.76 20.57  20.39 25.97  13.76 25.97  C 7.130000000000001 25.97  1.729999999999999 20.570000000000004  1.729999999999999 13.94  C 1.729999999999999 7.309999999999997  7.129999999999999 1.9099999999999993  13.76 1.9099999999999993  C 20.39 1.9099999999999993  25.79 7.309999999999999  25.79 13.94  Z " fill-rule="nonzero" fill="#d7d7d7" stroke="none" transform="matrix(1 0 0 1 1835 305 )" />
  </g>
</svg>