<?xml version="1.0" encoding="utf-8"?>
<svg version="1.1" xmlns:xlink="http://www.w3.org/1999/xlink" width="5px" height="6px" xmlns="http://www.w3.org/2000/svg">
  <g transform="matrix(1 0 0 1 -691 -441 )">
    <path d="M 4.889181210937501 3.8121589875  C 4.802170031082893 3.6737041341317287  4.646457632220615 3.5886102419380808  4.4780235546875 3.5874690749999996  L 3.0431950390625007 3.5874690749999996  L 3.0431950390625007 2.6288096624999993  L 4.477751093749999 2.6288096624999993  C 4.743409609375 2.6288096624999993  4.951849374999999 2.4226913249999997  4.951849374999999 2.1739368374999994  C 4.951849374999999 1.9189046624999992  4.736870312499999 1.7193256124999996  4.477751093749999 1.7193256499999998  L 3.6562532031249995 1.7193256499999998  L 4.1807584765625005 0.8514315000000008  C 4.306433661361131 0.6350456956210409  4.227491287688125 0.3618710385792887  4.0036528125 0.23856952499999975  C 3.7826794140624997 0.11746192499999991  3.491953632812501 0.18416264999999965  3.3592605859375 0.3965587124999996  L 2.5756360546875 1.7070317625  L 1.7920115234375 0.3965587125000006  C 1.659318476562499 0.18390108750000034  1.368320234375 0.11144580000000026  1.1473468359374994 0.23856952500000084  C 0.9238589099032535 0.3621473616023543  0.8451084913269657 0.6350775893338945  0.9705135937499998 0.8514315000000008  L 1.495291367187499 1.719325650000001  L 0.6735210156249993 1.719325650000001  C 0.40786249999999913 1.719325650000001  0.1994227343749988 1.9251823875000005  0.1994226953124989 2.1739368375000003  C 0.1994226953124989 2.4289690125000005  0.4144017578124992 2.6288096249999997  0.6735210156249993 2.6288096624999993  L 2.1083494921875 2.6288096624999993  L 2.1083494921875 3.5874690749999996  L 0.6735210156250004 3.5874690749999996  C 0.40786250000000024 3.5874690749999996  0.19942273437500102 3.793848975  0.1994226953125 4.042603462499999  C 0.1994226953125 4.297635637499999  0.4144017578125003 4.497476249999998  0.6735210156250004 4.497476249999998  L 2.1083494921875 4.497476249999998  L 2.1083494921875 5.335028099999999  C 2.1083494921875 5.589798712499999  2.32305609375 5.789900887499998  2.582175351562501 5.789900887499998  C 2.847561406250001 5.789900887499998  3.056001171875 5.583782549999999  3.056001171875 5.335028099999999  L 3.056001171875 4.49747625  L 4.4780235546875025 4.49747625  C 4.648857381836806 4.49933141886712  4.806885167709152 4.4107604544275745  4.889181210937501 4.2670317749999995  C 4.971213704978863 4.125633037258083  4.971213704978863 3.953557725241918  4.889181210937501 3.8121589875  Z " fill-rule="nonzero" fill="#f4ad51" stroke="none" transform="matrix(1 0 0 1 691 441 )" />
  </g>
</svg>