<?xml version="1.0" encoding="utf-8"?>
<svg version="1.1" xmlns:xlink="http://www.w3.org/1999/xlink" width="13px" height="12px" xmlns="http://www.w3.org/2000/svg">
  <g transform="matrix(1 0 0 1 -690 -452 )">
    <path d="M 0.5649249000000018 4.472957499999994  C 1.3710881625000013 3.465907319078944  2.1199672875000024 2.2258979440789424  2.8113007125000014 0.752676917763157  L 3.686257275000001 1.0653925164473668  C 2.973213450000001 2.329884092105261  2.2748176125000006 3.4452110723684184  1.5908082000000006 4.410868687499998  C 2.0660835750000013 4.40052054605263  2.5214794875000006 4.388405674342102  2.9572575750000025 4.374271651315789  C 3.2644820541265815 3.915172519651702  3.558084437654664 3.447718214175209  3.8377071750000002 2.9724780032894715  L 4.669504462500001 3.3578829046052623  C 3.7260161625000006 4.754376289473681  2.8115623125000013 5.970660690789473  1.9258812750000018 7.005726532894736  C 3.2436783375000022 6.8252651644736835  4.147146225000004 6.696544467105262  4.637069587500003 6.620069246710523  C 4.594907591007884 6.8829599550406915  4.562452200489195 7.147214854908016  4.539765000000003 7.412332523026311  C 3.6323735625000015 7.530452694078943  2.415543075000003 7.704099453947363  0.888750375000003 7.933272730263154  L 0.6836783625000025 7.161958121710522  C 1.2777071625000023 6.60265407565789  1.8772290000000018 5.904533575657892  2.4819822375000022 5.067091851973679  C 1.7113926750000017 5.112270299342099  1.1443057125000018 5.150381717105257  0.7809829500000021 5.181678526315783  L 0.5649249000000018 4.472957499999994  Z M 10.847561062500002 1.7637654013157849  L 10.847561062500002 2.5767249605263127  L 8.2334157375 2.5767249605263127  L 8.2334157375 9.642986483552631  L 11.246980687499999 9.642986483552631  L 11.246980687499999 10.45594604276316  L 4.16153265 10.45594604276316  L 4.16153265 9.642986483552631  L 7.3155614625 9.642986483552631  L 7.3155614625 2.576472539473685  L 4.7231266125 2.576472539473685  L 4.7231266125 1.7635130164473674  L 10.847561062499999 1.7635130164473674  Z M 4.638115875 6.62032163157895  L 4.6368080250000006 6.62032163157895  L 4.638115875 6.62032163157895  Z M 0.5429529000000002 9.298721726973683  C 1.8246531000000006 9.034970493421051  3.1965954750000005 8.7432035625  4.6582568625 8.423168585526316  C 4.636894401709798 8.693751627774537  4.626075158587668 8.965013592099508  4.6258220250000015 9.236380529605261  C 3.343652622595073 9.522426758834765  2.0654177569254832 9.824651814409105  0.7914457874999999 10.142978059210526  L 0.5429529000000002 9.298721726973683  Z M 2.9930928750000003 0.27943907894736525  C 2.9350339014440747 0.25847207900554353  2.87355427756769 0.24770172341613217  2.8115622750000018 0.24763749999999957  C 2.606136035089749 0.24762909832266303  2.419717379928792 0.3636314220966813  2.334979050000001 0.5441998881578936  C 1.664048212500001 1.9742616184210533  0.9290323875000005 3.192312749999997  0.15059568750000096 4.164785009868425  C 0.048040947936199174 4.292835719361475  0.015444642510031768 4.460614101191726  0.06296925000000114 4.615812256578947  L 0.2790272625000014 5.324533246710524  C 0.34937631907501443 5.555415977219747  0.5788564028311818 5.70627446923035  0.8272810875000016 5.684951213815788  C 0.9776847000000015 5.671826766447366  1.1654929875000013 5.657692707236839  1.3893981750000015 5.642044302631577  C 1.028952675000002 6.0814614473684205  0.6703381875000012 6.4691378848684185  0.3182629875000018 6.8010353848684195  C 0.18413330487749385 6.927159078324304  0.13015523068969442 7.112871198411877  0.17675283750000154 7.287902513157894  L 0.38182488750000193 8.05921712171053  C 0.44856577676163983 8.311139201304647  0.7027981599510418 8.472859327626916  0.9690528375000022 8.432759536184209  C 2.4903525375000024 8.204343378289472  3.7152917250000033 8.029434694078946  4.609342987500003 7.913081253289476  C 4.8530552186853555 7.881175798635857  5.040962321684567 7.68999310043478  5.061076950000004 7.453472667763155  C 5.080694812500003 7.218241901315789  5.110513950000001 6.97266299342105  5.1497496750000025 6.7227933980263135  C 5.157075929128245 6.688923063672876  5.1607682635895635 6.654414832578474  5.1607682635895635 6.619814644241623  C 5.1607682635895635 6.342025562138772  4.927836107294436 6.116604227297761  4.639946850000003 6.11578694736842  L 4.6368080250000006 6.11578694736842  L 4.620067425000002 6.116039368421056  C 4.5944590389679405 6.11688530939001  4.568940230238978 6.119415109667182  4.543688550000001 6.123611167763157  C 4.237388362500001 6.171313536184209  3.7710064125000007 6.239459802631577  3.1502973374999996 6.326787934210523  C 3.7890548624999987 5.517109486842101  4.444291424999999 4.615812220394732  5.107375087500001 3.634001430921051  C 5.220854739920451 3.4660323959590276  5.220546735316557 3.24918026259527  5.1065903625 3.081511993421053  L 6.7921569375 3.081511993421053  L 6.7921569375 9.138199450657895  L 5.1494881125 9.138199450657895  C 5.15184225 8.918869473684213  5.162043525 8.691462927631578  5.180091975000002 8.461027618421058  C 5.181072391072442 8.44844301220756  5.1815631168604295 8.435827342007748  5.1815631168604295 8.423207228739992  C 5.1815631168604295 8.144560436873805  4.9474611568399265 7.918672580713673  4.65868175436043 7.918672580713673  C 4.619636431451164 7.918672580713673  4.58071395725414 7.9228925542009145  4.542642262500001 7.931253578947368  C 3.1749854879080797 8.230990021962567  1.8053696411930185 8.522342163155082  0.43387758750000177 8.805292375000006  C 0.2921704090981858 8.834287442454427  0.1693559230270797 8.918868700973164  0.09488096250000098 9.038756375000004  C 0.020075298309916792 9.158311668947164  0.00017594866998038583 9.302503021246531  0.0399509625000011 9.43678099013158  L 0.28844385000000194 10.281037322368427  C 0.36581980559578897 10.544615251050962  0.6470358938223004 10.700455984367101  0.9219699750000014 10.63211672368421  C 1.8255284435110732 10.407118598333751  2.7310337614541442 10.189463536324789  3.6383896875 9.97917467105263  L 3.6383896875 10.45619842763158  C 3.6383896875 10.73498462779567  3.8726087698299487 10.960985496710526  4.16153265 10.960985496710526  L 11.246980687500002 10.960985496710526  C 11.535904567670052 10.960985496710526  11.770123649999999 10.734984627795667  11.770123649999999 10.45619842763158  L 11.770123649999999 9.643238868421053  C 11.770123629289323 9.364452682387784  11.535904553025393 9.138451835526316  11.246980687499999 9.138451835526316  L 8.7565587 9.138451835526316  L 8.7565587 3.081259608552631  L 10.8472994625 3.081259608552631  C 11.136223342670057 3.081259608552631  11.370442425 2.855258739637771  11.370442425 2.576472539473685  L 11.370442425 1.7635130164473674  C 11.370442425 1.4847268162832814  11.136223342670057 1.2587259473684211  10.8472994625 1.2587259473684211  L 4.7231266125 1.2587259473684211  C 4.434202732329945 1.2587259473684211  4.19998365 1.4847268162832814  4.19998365 1.7635130164473674  L 4.19998365 2.5807632269736835  L 4.063966500000001 2.5176648749999972  C 3.8163729592299713 2.403018366830093  3.519053859697829 2.492622279786839  3.3830959500000017 2.7228607927631563  C 3.1529636798896643 3.1133532421796226  2.913562593595083 3.4986916032080746  2.665082250000001 3.878570763157893  L 2.580071512500001 3.8810946842105243  C 3.094321012500002 3.103722621710524  3.6190333875000005 2.2415463486842087  4.145838375 1.3066807368421045  C 4.218293662500001 1.177960039473684  4.2292796625000015 1.0252619473684197  4.1761806375 0.8882122598684218  C 4.122765282091025 0.7511166517116403  4.010356255620554 0.643112176131509  3.8680494375 0.5921546414473666  L 2.9930928750000003 0.27943907894736525  Z " fill-rule="nonzero" fill="#db1818" stroke="none" transform="matrix(1 0 0 1 690 452 )" />
  </g>
</svg>