<?xml version="1.0" encoding="utf-8"?>
<svg version="1.1" xmlns:xlink="http://www.w3.org/1999/xlink" width="13px" height="12px" xmlns="http://www.w3.org/2000/svg">
  <g transform="matrix(1 0 0 1 -700 -452 )">
    <path d="M 0.6892288536585375 4.95757794230769  C 1.9113418170731702 3.6782922211538422  2.810892475609755 2.2767833493589746  3.3866049146341446 0.7535431185897434  L 4.250939158536579 0.97708610576923  C 4.099241116493562 1.3232372036668039  3.9376430614268876 1.6652812401402322  3.7663301341463384 2.0028263397435877  L 9.83580907317073 2.0028263397435877  C 9.807993182926825 4.419500814102561  9.751595817073168 6.092015628205127  9.667382560975607 7.019141214743588  C 9.58367970731707 8.13611848076923  9.010774353658535 8.694607096153844  7.948411390243898 8.694607096153844  L 7.928761646341458 8.694607096153844  C 7.647795621951213 8.694607096153844  7.148895878048775 8.681081397435893  6.4323176341463375 8.654029999999999  C 6.385269177586771 8.371406646705445  6.3290997880688 8.090263645422356  6.2638911219512154 7.811009708333333  C 6.847004121951214 7.865358451923075  7.363512073170726 7.892409849358973  7.812904609756094 7.892409884615384  L 7.832809573170729 7.892409884615384  C 8.459560353658532 7.892409884615384  8.796923743902436 7.563858217948717  8.845665365853655 6.907246746794871  C 8.922988426829265 6.047503810897434  8.971985231707315 4.656323621794869  8.99316614634146 2.7334603012820486  L 3.376397268292686 2.7334603012820486  C 3.1339780225230074 3.161826721726233  2.870227780936392 3.578658260810296  2.5860686341463417 3.982497644230766  L 6.96975131707317 3.982497644230766  L 6.96975131707317 6.947823878205125  L 3.154890878048782 6.947823878205125  L 3.154890878048782 8.857161464743587  C 3.154890878048782 9.392041576923075  3.4468301707317104 9.65935867628205  4.029687951219513 9.65935871153846  L 8.940086268292687 9.65935871153846  C 9.607667707317075 9.65935871153846  9.997600609756102 9.45278431730769  10.109884939024393 9.039881442307692  C 10.215279109756102 8.667555698717948  10.299492365853663 8.170055701923076  10.362779890243907 7.547135538461538  C 10.665182048780494 7.662472900641026  10.945892890243904 7.760349807692309  11.205678000000006 7.841504035256412  C 11.121464743902443 8.444012676282053  11.030106109756105 8.935118711538461  10.931857353658543 9.31383841666667  C 10.756285463414642 10.065375727564104  10.15939214634147 10.44114440064103  9.140411743902446 10.44114440064103  L 3.8505433902439035 10.44114440064103  C 2.8249280121951217 10.44114440064103  2.311992731707318 9.960367083333338  2.3119927682926837 8.999304310897438  L 2.3119927682926797 4.378923717948716  C 1.9718885606229317 4.828090676265049  1.6060562207169453 5.258630591951265  1.2161996707317075 5.668538157051277  C 1.0669737601548834 5.414353605821014  0.8903394337583882 5.17604822996847  0.6892288536585375 4.95757794230769  Z M 3.154890878048782 4.673538163461538  L 3.154890878048782 6.257767012820512  L 6.147778902439027 6.257767012820512  L 6.147778902439027 4.673538163461538  L 3.154890878048782 4.673538163461538  Z M 9.837085024390246 2.0028263397435877  L 9.835809073170733 2.0028263397435877  L 9.837085024390246 2.0028263397435877  Z M 3.5190494268292656 0.2781760737179527  C 3.4757212583083 0.26727802329967415  3.431129394437472 0.26174123810230404  3.386349731707319 0.2616993076923045  C 3.171912319790275 0.2618439804637465  2.980437331387289 0.3911453304852227  2.9070997682926834 0.5853325288461508  C 2.357161682926829 2.040206455128204  1.4844061463414624 3.3991708878205107  0.3135867073170753 4.624599692307694  C 0.13520219719831617 4.811249088695802  0.13354379138742686 5.098067970618536  0.30975885365853906 5.286621435897437  C 0.4867011625815872 5.479415463517142  0.642116706391236 5.689604672970674  0.7734421097560984 5.9137222692307665  C 0.8644863034666476 6.066353618506233  1.0332416930749602 6.160450719088135  1.2159292366245416 6.160450719088135  C 1.3589602903990765 6.160450719088135  1.495428045710025 6.102613413142802  1.5920970365853675 6.001024544871794  C 1.6622747560975617 5.927247967948716  1.7321972560975607 5.852487701923078  1.801354207317075 5.776743782051283  L 1.801354207317075 8.999550259615386  C 1.801354207317075 10.228421993589746  2.54830024390244 10.933234125000002  3.850288207317074 10.933234125000002  L 9.14041174390244 10.933234125000002  C 10.740718756097563 10.933234125000002  11.268710341463416 10.111363131410261  11.42973629268293 9.42204407692308  C 11.529261036585368 9.039881442307697  11.62495792682927 8.52639654166667  11.711467939024391 7.907165185897438  C 11.74434423710568 7.671611611681385  11.597729073394019 7.447101212694952  11.36313128048781 7.373760589743593  C 11.089286671634229 7.28734123716435  10.818311013930606 7.192697101789985  10.550600963414636 7.089966724358976  C 10.429438103530408 7.043639650193966  10.294460000085571 7.043815659123371  10.173427682926832 7.090458551282055  L 10.176489951219516 7.054553951923081  C 10.260703207317077 6.127674314102569  10.317866158536589 4.435977580128211  10.345937231707321 2.032828839743597  C 10.34659200697476 2.0226762797687785  10.346919631209243 2.012506580821163  10.346919631209243 2.002334431426837  C 10.346919631209243 1.7309428973564451  10.118706347928477 1.5108928220846773  9.837085024390246 1.5107366506410278  L 4.567121634146341 1.5107366506410278  C 4.619435926829269 1.3971207179487188  4.670729451219512 1.2830129583333358  4.721002207317071 1.1684133717948753  C 4.747820674929411 1.107637430968024  4.761643325123831 1.0422731388411344  4.761643325123831 0.9762304069278973  C 4.761643325123831 0.7537525084264705  4.606446605264085 0.5590645712101806  4.383383634146338 0.5017190961538495  L 3.5190494268292656 0.2781760737179527  Z M 3.515221536585366 3.491145660256413  C 3.5695773658536583 3.403105608974363  3.6231676097560963 3.314819644230771  3.6757370853658577 3.2257959391025612  L 8.47640297560976 3.2257959391025612  C 8.452670158536591 4.875194112179483  8.405970073170737 6.098163711538458  8.337068341463418 6.865194099358973  C 8.300065536585372 7.3622022692307665  8.095912207317078 7.401057900641023  7.832554390243907 7.401057935897432  L 7.818518853658537 7.401057935897432  C 7.626359524390246 7.401057935897432  7.420930207317073 7.395893576923074  7.203506890243906 7.385564823717951  C 7.373390632725763 7.301217825149507  7.480143787742632 7.132479439896675  7.480134658536583 6.948315705128204  L 7.480134658536583 3.982989471153848  C 7.4801346585365796 3.711351648865018  7.251628259049157 3.4911456797279943  6.96975131707317 3.491145660256413  L 3.515221536585366 3.491145660256413  Z M 3.6652742560975655 5.7656772884615375  L 3.6652742560975655 5.165136025641025  L 5.637395560975612 5.165136025641025  L 5.637395560975612 5.7656772884615375  L 3.6652742560975655 5.7656772884615375  Z M 3.6652742560975615 8.85765332692308  L 3.6652742560975655 7.439913567307693  L 5.928824451219516 7.439913567307697  C 5.787115098139003 7.558302575702297  5.724289604767341 7.742105091436419  5.765246597560978 7.918477592948717  C 5.8321068292682945 8.206943990384616  5.886717841463416 8.480163189102566  5.9278036829268315 8.731003522435898  C 5.965742072508169 8.96291029960175  6.168470084235249 9.136647256790324  6.411902304878051 9.145873775641027  C 6.641830024390245 9.154726977564106  6.850576792682931 9.161858714743591  7.037632317073173 9.168006762820516  L 4.029687951219513 9.168006762820516  C 3.695131646341464 9.168006762820516  3.6652742195121952 9.08759031089744  3.6652742560975615 8.85765332692308  Z M 8.940086268292687 9.167760814102563  L 8.301851890243906 9.167760814102563  C 8.929113036585369 9.097673080128205  9.412701292682929 8.834782564102563  9.732711621951228 8.397533445512819  C 9.70255437052465 8.570246481242231  9.66406376621314 8.741511806138515  9.617364987804882 8.910772432692307  C 9.599246378048786 8.977663185897432  9.547442451219517 9.167760814102563  8.940086268292687 9.167760814102563  Z " fill-rule="nonzero" fill="#db1818" stroke="none" transform="matrix(1 0 0 1 700 452 )" />
  </g>
</svg>