<?xml version="1.0" encoding="utf-8"?>
<svg version="1.1" xmlns:xlink="http://www.w3.org/1999/xlink" width="24px" height="11px" xmlns="http://www.w3.org/2000/svg">
  <g transform="matrix(1 0 0 1 -1112 -439 )">
    <path d="M 23.73958669879518 6.277099957236839  C 23.65893594363468 6.147512610729927  23.51770134265578 6.068201210562519  23.365192807228915 6.066856124999999  L 22.037544289156624 6.066856124999999  L 22.037544289156624 5.14183388486842  L 23.365192807228915 5.14183388486842  C 23.611006951807227 5.14183388486842  23.80387651807229 4.942947769736842  23.80387655421687 4.70292150986842  C 23.80387655421687 4.456837832236841  23.6049561686747 4.264261555921053  23.365192807228915 4.264261592105263  L 22.604807710843374 4.264261592105263  L 23.090385216867464 3.4268198684210516  C 23.206277152208834 3.2180399541793525  23.13343896624056 2.9547934612408238  22.92676120481928 2.835461822368421  C 22.72204214457831 2.7186036118421053  22.45303319277108 2.7829639605263155  22.330252192771084 2.9879075296052626  L 21.59356608433735 4.246089230263157  L 20.86822525301205 2.9818500756578943  C 20.745192108433738 2.776654121710526  20.476183192771085 2.706488740131579  20.271716240963855 2.8294043684210517  C 20.064922593741812 2.9486461405812183  19.992054736553143 3.2119998690941074  20.108092228915666 3.420762414473684  L 20.58761895180723 4.257951753289473  L 19.827233819277104 4.257951753289473  C 19.581671783132528 4.257951753289473  19.388802216867468 4.45658544736842  19.388802216867468 4.69661167105263  C 19.388802216867468 4.942947769736842  19.5874704939759 5.136028815789473  19.827233819277104 5.136028815789473  L 21.154882373493976 5.136028815789473  L 21.154882373493976 6.060798707236841  L 19.827233819277104 6.060798707236841  C 19.581671783132528 6.060798707236841  19.388802216867468 6.259937207236842  19.388802216867468 6.499711046052629  C 19.388802216867468 6.746047144736841  19.5874704939759 6.93887576973684  19.827233819277104 6.93887576973684  L 21.154882373493976 6.93887576973684  L 21.154882373493976 7.746787450657893  C 21.154882373493976 7.992871128289471  21.353802759036146 8.185447404605261  21.59356608433735 8.185447404605261  C 21.838876012048196 8.185447404605261  22.03199768674699 7.986813710526315  22.03199768674699 7.746787450657893  L 22.03199768674699 6.93887576973684  L 23.359394132530124 6.93887576973684  C 23.517219433734944 6.93887576973684  23.66369945783133 6.857100249999998  23.739586698795183 6.7165170657894695  C 23.815727615040096 6.579961515051927  23.815727615040096 6.413655507974382  23.73958669879518 6.277099957236839  Z M 5.552364650602408 0.15403300000000103  C 2.6164612409638552 0.15378061513158006  0.23067730120481802 2.5368802828947383  0.23067726506024083 5.481807953947368  C 0.23067726506024083 8.426230819078945  2.6167133132530123 10.809330486842105  5.552364650602408 10.809330486842105  C 8.493814626506023 10.809330486842105  10.873799891566263 8.42042575  10.873799891566263 5.48180795394737  C 10.873799891566263 2.5426853519736863  8.487763843373491 0.15403300000000103  5.552364650602408 0.15403300000000103  Z " fill-rule="nonzero" fill="#f4ad51" stroke="none" transform="matrix(1 0 0 1 1112 439 )" />
  </g>
</svg>