<?xml version="1.0" encoding="utf-8"?>
<svg version="1.1" xmlns:xlink="http://www.w3.org/1999/xlink" width="22px" height="11px" xmlns="http://www.w3.org/2000/svg">
  <g transform="matrix(1 0 0 1 -1114 -452 )">
    <path d="M 0.4872775540540524 10.095365729166666  L 0.24102334121621583 9.20420626736111  C 1.5111766925675663 8.925802187499999  2.8705000202702706 8.61782598263889  4.319252493243242 8.280011284722223  C 4.298082487054752 8.565626718206454  4.28736071459138 8.851958791660591  4.287109861486487 9.138401670138887  C 3.0164915347789014 9.440339356547806  1.7497722985297546 9.759354692987388  0.4872775540540524 10.095365729166666  Z M 4.330139557432432 2.9330544374999947  C 3.3948919459459437 4.407663600694438  2.4886763817567554 5.691519357638884  1.6109744898648644 6.7840888576388885  C 2.916899506756756 6.593601857638888  3.8122280439189176 6.457730010416666  4.297737682432432 6.377006166666664  C 4.255955523746549 6.654501914348512  4.223792524133432 6.933437641986244  4.201309712837838 7.21328406944444  C 3.3020929729729724 7.337966472222218  2.0962249222972975 7.521260274305549  0.5831871114864868 7.763165437499994  L 0.37996255743243235 6.948999979166662  C 0.9686397466216214 6.358623486111107  1.562760486486486 5.621718513888885  2.1620654966216213 4.7377522881944385  C 1.398418182432432 4.785440649305549  0.8364401114864857 4.82566936805555  0.47639052702702667 4.858704850694438  L 0.26227898310810743 4.110610434027772  C 1.0614387567567558 3.047080208333329  1.8035712229729732 1.7381813854166608  2.4886763817567554 0.18311478472221646  L 3.3557504527027016 0.5132034722222156  C 2.6491304459459455 1.8479445798611038  1.9570264628378367 3.0252341701388814  1.279179297297296 4.044539430555549  C 1.750172912162161 4.033616392361106  2.2014661587837825 4.020828472222214  2.633318317567568 4.005909187499995  C 2.9377750085938232 3.5213045485213668  3.228732325603793 3.027880559407026  3.505835939189188 2.526238114583326  L 4.330139557432432 2.9330544374999947  Z M 3.8267440675675672 10.425454416666668  L 3.8267440675675672 9.56759684375  L 6.952358206081081 9.56759684375  L 6.952358206081081 2.1084987916666678  L 4.383278625 2.1084987916666678  L 4.383278625 1.2503748506944434  L 10.452537989864863 1.2503748506944434  L 10.452537989864863 2.1084987916666678  L 7.861943523648649 2.1084987916666678  L 7.861943523648649 9.567330437499999  L 10.848359239864866 9.567330437499999  L 10.848359239864866 10.425454416666668  L 3.8267440675675672 10.425454416666668  Z M 11.10550047972973 4.759598326388887  C 12.346880989864864 3.3737054618055518  13.260613753378376 1.8554041840277775  13.845402739864863 0.20522726736111094  L 14.723363874999995 0.4473988368055547  C 14.569274197159 0.8223958595279264  14.405128425007941 1.1929435657074738  14.23111461824324 1.5586174236111083  L 20.396283540540537 1.5586174236111083  C 20.368029111486482 4.176681437499996  20.31074259797297 5.988572486111108  20.225201655405403 6.992958538194443  C 20.139660712837834 8.21047684722222  19.5507242804054 8.815772625  18.459170050675674 8.808046576388884  C 18.173774381756754 8.808046576388884  17.66700910135135 8.793393736111106  16.93913345270271 8.764088055555554  C 16.891343241197376 8.45791275615312  16.834288298241056 8.15334117142977  16.768051567567568 7.850816072916666  C 17.36035779054054 7.90969387847222  17.885008885135132 7.938999559027777  18.34148643918919 7.938999597222223  C 18.99107917567568 7.946459239583331  19.340500939189187 7.590528267361111  19.39052945945946 6.871739531249999  C 19.469071577702703 5.940351350694443  19.51884085472973 4.433239479166664  19.540355702702705 2.3501375486111082  L 13.835034162162165 2.3501375486111082  C 13.588792991346569 2.8142011707589747  13.320884525230435 3.2657686714333765  13.032245391891891 3.7032613368055523  L 17.48504018918919 3.7032613368055523  L 17.48504018918919 6.915698090277774  L 13.610035554054056 6.915698090277774  L 13.610035554054056 8.984147142361108  C 13.610035554054056 9.56360059722222  13.906577493243248 9.853194121527777  14.498624472972974 9.85319415972222  L 19.486438979729733 9.85319415972222  C 20.164545351351354 9.85319415972222  20.560625844594597 9.629405232638886  20.6746804222973 9.182093784722223  C 20.781736212837842 8.778740895833334  20.86727715540541 8.239782565972222  20.931562456081085 7.564952388888889  C 21.238732216216224 7.689901197916667  21.523868679054058 7.7959345138888905  21.787749500000007 7.883851593750002  C 21.70220855743244 8.536569288194446  21.609409584459467 9.06860082638889  21.50961186148649 9.478880506944446  C 21.331271945945954 10.293045927083336  20.724968148648657 10.700128656250003  19.689922739864873 10.700128656250003  L 14.316655560810812 10.700128656250003  C 13.274870570945945 10.700128656250003  12.753848472972972 10.179286562500005  12.753848510135136 9.138135225694446  L 12.753848510135132 4.132722916666665  C 12.408382299191311 4.619320454842692  12.036782332304824 5.085738696836093  11.640779395270272 5.5298052256944406  C 11.48920082394111 5.25443862852832  11.309781722128454 4.996274471354731  11.10550047972973 4.759598326388887  Z M 16.65010875 6.1678700798611095  L 16.650108749999998 4.451622159722222  L 13.610035554054056 4.451622159722222  L 13.610035554054056 6.1678700798611095  L 16.65010875 6.1678700798611095  Z " fill-rule="nonzero" fill="#faee00" stroke="none" transform="matrix(1 0 0 1 1114 452 )" />
  </g>
</svg>