<?xml version="1.0" encoding="utf-8"?>
<svg version="1.1" xmlns:xlink="http://www.w3.org/1999/xlink" width="37px" height="30px" xmlns="http://www.w3.org/2000/svg">
  <g transform="matrix(1 0 0 1 -20 -122 )">
    <path d="M 1.8504129464285717 4  L 35.14876116071429 4  C 36.16997767857143 3.444583333333333  36.99834821428571 2.6979166666666665  36.99834821428571 1.7779166666666661  C 36.99834821428571 0.8579166666666657  36.16997767857143 0.11124999999999949  35.14876116071429 0.11124999999999949  L 1.8504129464285717 0.11124999999999949  C 0.8287834821428575 0.11124999999999949  0 0.8574999999999994  0 1.7779166666666661  C 0 2.6983333333333333  0.8287834821428568 3.444583333333333  1.8504129464285717 4  Z M 16.386127232142858 16.666666666666668  L 35.14876116071429 16.666666666666668  C 36.16997767857143 16.666666666666668  36.99834821428571 15.919583333333335  36.99834821428571 15  C 36.99834821428571 14.080416666666665  36.171629464285715 13.333333333333332  35.14876116071429 13.333333333333332  L 16.386127232142858 13.333333333333332  C 15.364497767857143 13.333333333333332  14.535714285714285 14.079583333333334  14.535714285714285 15  C 14.535714285714285 15.920416666666664  15.364497767857143 16.666666666666668  16.386127232142858 16.666666666666668  Z M 8.202767857142856 7.42  L 0.2613950892857142 14.424166666666665  C -0.0568573049446672 14.707838005232874  -0.08893020773823657 15.197357451080393  0.18954241071428587 15.520833333333336  C 0.2085379464285713 15.545000000000003  0.23744419642857142 15.569166666666664  0.2613950892857142 15.59375  L 8.202767857142856 22.583333333333332  C 8.273040850353913 22.644094291462117  8.362534139794137 22.677491717848454  8.455079022115886 22.677491717848454  C 8.668905467732305 22.677491717848454  8.84237486066766 22.502835644157862  9 22.287083333333335  L 9 7.711666666666666  C 8.842364294512825 7.4970725360718955  8.669822433122171 7.323360986313484  8.457143801056695 7.323360986313484  C 8.363538970691858 7.323360986313484  8.273128460143024 7.357708505311953  8.202767857142856 7.42  Z M 35.14876116071429 26  L 1.8504129464285717 26  C 0.8287834821428575 26.55541666666667  0 27.302083333333336  0 28.222083333333337  C 0 29.142083333333336  0.8287834821428568 29.88875  1.8504129464285717 29.88875  L 35.14876116071429 29.88875  C 36.16997767857143 29.88875  36.99834821428571 29.142500000000005  36.99834821428571 28.222083333333337  C 36.99834821428571 27.30166666666667  36.16997767857143 26.55541666666667  35.14876116071429 26  Z " fill-rule="nonzero" fill="#d6af66" stroke="none" transform="matrix(1 0 0 1 20 122 )" />
  </g>
</svg>