<?xml version="1.0" encoding="utf-8"?>
<svg version="1.1" xmlns:xlink="http://www.w3.org/1999/xlink" width="60px" height="57px" xmlns="http://www.w3.org/2000/svg">
  <defs>
    <linearGradient gradientUnits="userSpaceOnUse" x1="65.019" y1="42.1284" x2="6.492900000000004" y2="8.45214" id="LinearGradient167">
      <stop id="Stop168" stop-color="#916b23" stop-opacity="0.9882352941176471" offset="0" />
      <stop id="Stop169" stop-color="#d9b269" stop-opacity="0.996078431372549" offset="0.4" />
      <stop id="Stop170" stop-color="#ffefd0" offset="0.61" />
      <stop id="Stop171" stop-color="#b9892b" offset="0.93" />
      <stop id="Stop172" stop-color="#b9892b" offset="1" />
    </linearGradient>
  </defs>
  <g transform="matrix(1 0 0 1 -158 -55 )">
    <path d="M 60 0.6305699999999996  C 60 0.2823299999999991  59.717699999999994 0  59.3694 0  L 0.5045399999999987 0  C 0.22602000000000189 0  0.0003299999999981651 0.21797999999999984  0.0006299999999974659 0.4964999999999992  C 0.011070000000001912 10.22916  0.024870000000001724 30.5187  9.000000000192188E-05 37.708800000000004  C -0.023970000000001157 44.682300000000005  5.337479999999998 52.0572  8.3967 55.2981  C 8.634 55.5495  9.027000000000001 55.5495  9.2742 55.307700000000004  C 11.359200000000001 53.268899999999995  15.064499999999999 49.6143  17.0691 47.532300000000006  C 17.363099999999996 47.2269  17.2707 46.723200000000006  16.930799999999998 46.469699999999996  C 13.4727 43.890899999999995  12.580200000000001 36.274499999999996  13 32.569500000000005  L 13 12.6747  C 12.580200000000001 12.32643  12.862499999999999 12.044129999999997  13.210800000000003 12  L 47.073 12  C 47.421299999999995 12.044129999999997  47.7036 12.32643  47.7036 12.6747  L 47.7036 18.381600000000002  C 47.7036 18.7296  47.421299999999995 19.0122  47.073 19  L 20.7462 19  C 20.3979 19.0122  20.1156 19.2945  20.1156 19.6425  L 20.1156 25.644299999999998  C 20.1156 25.818299999999997  20.182499999999997 25.9797  20.3094 26.0991  C 28.973400000000005 34.245599999999996  46.6728 50.896499999999996  51.18449999999999 55.172399999999996  C 51.372 55.3503  51.641999999999996 55.391099999999994  51.8688 55.2672  C 56.769 52.59  59.19780000000001 43.19610000000001  59.909099999999995 38.12520000000001  C 59.961600000000004 37.7511  59.667899999999996 37.425000000000004  59.2905 37.425000000000004  L 50.1087 37.425000000000004  C 49.94160000000001 37.425000000000004  49.781099999999995 37.3587  49.66290000000001 37.2405  L 44.7129 32.2902  C 44.31569999999999 31.892999999999997  44.5971 31.2138  45.1587 31  L 59.3694 31  C 59.717699999999994 31.2138  60 30.9315  60 30.5832  L 60 0.6305699999999996  Z " fill-rule="nonzero" fill="url(#LinearGradient167)" stroke="none" transform="matrix(1 0 0 1 158 55 )" />
  </g>
</svg>