<?xml version="1.0" encoding="utf-8"?>
<svg version="1.1" xmlns:xlink="http://www.w3.org/1999/xlink" width="36px" height="36px" xmlns="http://www.w3.org/2000/svg">
  <defs>
    <linearGradient gradientUnits="userSpaceOnUse" x1="36.95519999999999" y1="25.9422" x2="4.4777999999999984" y2="8.6598" id="LinearGradient173">
      <stop id="Stop174" stop-color="#916b23" stop-opacity="0.9882352941176471" offset="0" />
      <stop id="Stop175" stop-color="#d9b269" stop-opacity="0.996078431372549" offset="0.4" />
      <stop id="Stop176" stop-color="#ffefd0" offset="0.61" />
      <stop id="Stop177" stop-color="#b9892b" offset="0.93" />
      <stop id="Stop178" stop-color="#b9892b" offset="1" />
    </linearGradient>
  </defs>
  <g transform="matrix(1 0 0 1 -170 -97 )">
    <path d="M 28.1757 16.748399999999997  L 30.2562 14.667899999999996  C 30.549 14.375099999999996  31.0239 14.375099999999996  31.317 14.667899999999996  L 33.740100000000005 17.090999999999998  C 34.032900000000005 17.384099999999997  34.032900000000005 17.858999999999998  33.740100000000005 18.151799999999998  L 18.752400000000005 33.139500000000005  C 18.459599999999995 33.432300000000005  17.984700000000004 33.432300000000005  17.691600000000005 33.139500000000005  L 2.7039000000000026 18.151799999999998  C 2.4110999999999976 17.858999999999998  2.4110999999999976 17.384099999999997  2.7039000000000026 17.090999999999998  L 5.127299999999998 14.667899999999996  C 5.420099999999998 14.375099999999996  5.895 14.375099999999996  6.187799999999999 14.667899999999996  L 8.2683 16.748399999999997  C 8.5611 17.041199999999996  9.036000000000001 17.041199999999996  9.3291 16.748399999999997  L 11.939700000000002 14.137799999999995  L 14.550600000000003 16.748399999999997  C 14.843400000000003 17.041199999999996  15.318300000000004 17.041199999999996  15.611100000000004 16.748399999999997  L 18.222000000000005 14.137799999999995  L 20.832899999999995 16.748399999999997  C 21.125699999999995 17.041199999999996  21.600599999999996 17.041199999999996  21.893399999999996 16.748399999999997  L 24.504299999999997 14.137799999999995  L 27.115199999999998 16.748399999999997  C 27.407999999999998 17.041199999999996  27.8829 17.041199999999996  28.1757 16.748399999999997  Z M 18.222000000000005 7.855500000000003  L 21.363299999999995 10.996500000000005  L 18.222000000000005 14.137799999999995  L 15.081000000000003 10.996500000000005  L 18.222000000000005 7.855500000000003  Z M 21.363299999999995 10.996500000000005  L 23.973899999999997 8.385600000000004  C 24.266999999999996 8.092800000000004  24.7416 8.092800000000004  25.034699999999997 8.385600000000004  L 27.115199999999998 10.466100000000004  C 27.407999999999998 10.759200000000003  27.407999999999998 11.234100000000005  27.115199999999998 11.526900000000005  L 24.504299999999997 14.137799999999995  L 21.363299999999995 10.996500000000005  Z M 18.222000000000005 7.855500000000003  L 20.832899999999995 5.244600000000002  C 21.125699999999995 4.951800000000002  21.125699999999995 4.4769000000000005  20.832899999999995 4.1838000000000015  L 18.752400000000005 2.1036  C 18.459599999999995 1.810500000000001  17.984700000000004 1.810500000000001  17.691600000000005 2.1036  L 15.611100000000004 4.1838000000000015  C 15.318300000000004 4.4769000000000005  15.318300000000004 4.951800000000002  15.611100000000004 5.244600000000002  L 18.222000000000005 7.855500000000003  Z M 12.470100000000002 8.385600000000004  L 15.081000000000003 10.996500000000005  L 11.939700000000002 14.137799999999995  L 9.3291 11.526900000000005  C 9.036000000000001 11.234100000000005  9.036000000000001 10.759200000000003  9.3291 10.466100000000004  L 11.409300000000002 8.385600000000004  C 11.7024 8.092800000000004  12.177300000000002 8.092800000000004  12.470100000000002 8.385600000000004  Z " fill-rule="nonzero" fill="url(#LinearGradient173)" stroke="none" transform="matrix(1 0 0 1 170 97 )" />
  </g>
</svg>