<?xml version="1.0" encoding="utf-8"?>
<svg version="1.1" xmlns:xlink="http://www.w3.org/1999/xlink" width="20px" height="20px" xmlns="http://www.w3.org/2000/svg">
  <g transform="matrix(1 0 0 1 -10 -118 )">
    <path d="M 14.169999999999998 18.830000000000002  L 10.487 16.802999999999997  C 9.963 16.514  9.11 16.516  8.589 16.802999999999997  L 4.907 18.83  C 3.8600000000000003 19.407  3.173 18.88  3.373 17.662  L 4.0760000000000005 13.369  C 4.176000000000001 12.757000000000001  3.9110000000000005 11.909  3.4890000000000008 11.479  L 0.511 8.437  C -0.337 7.572  -0.06900000000000003 6.725  1.097 6.547000000000001  L 5.213 5.922000000000001  C 5.7989999999999995 5.832000000000001  6.488 5.306000000000001  6.749 4.753  L 8.59 0.848  C 9.114 -0.263  9.966 -0.25900000000000006  10.487 0.848  L 12.326999999999998 4.754  C 12.59 5.3100000000000005  13.281999999999998 5.8340000000000005  13.863999999999999 5.923  L 17.979999999999997 6.549  C 19.151999999999997 6.727  19.409999999999997 7.5760000000000005  18.566999999999997 8.438  L 15.587999999999997 11.478000000000002  C 15.163999999999998 11.911000000000001  14.901999999999997 12.761000000000003  15.000999999999998 13.369000000000002  L 15.703999999999997 17.662000000000003  C 15.903999999999998 18.884000000000004  15.213 19.404  14.169999999999998 18.830000000000002  Z " fill-rule="nonzero" fill="#d6af66" stroke="none" transform="matrix(1 0 0 1 10 118 )" />
  </g>
</svg>