<?xml version="1.0" encoding="utf-8"?>
<svg version="1.1" xmlns:xlink="http://www.w3.org/1999/xlink" width="20px" height="20px" xmlns="http://www.w3.org/2000/svg">
  <g transform="matrix(1 0 0 1 -10 -155 )">
    <path d="M 9.544446829268292 15.246509970731708  L 3.874815648780488 18.227211473170733  L 4.874494243902439 18.95352046829268  L 5.957297151219513 12.640293307317073  C 5.995630751219512 12.41679155121951  5.921531746341463 12.188738243902439  5.759148253658537 12.030453404878049  L 1.1723203317073172 7.559401112195122  L 0.7904770146341464 8.73459375609756  L 7.129317424390244 7.81350632195122  C 7.353725873170731 7.780897853658536  7.547719863414635 7.639953151219512  7.648078419512196 7.436604526829269  L 10.48289383414634 1.6926407219512196  L 9.247223297560975 1.6926407219512196  L 12.082038712195121 7.436604526829269  C 12.182397268292682 7.639953151219512  12.376391258536582 7.780897853658536  12.600799707317073 7.81350632195122  L 18.93964011707317 8.73459375609756  L 18.5577968 7.559401112195122  L 13.970968897560976 12.030453404878049  C 13.808585404878052 12.188738243902439  13.734486380487805 12.41679155121951  13.772819980487805 12.640293307317073  L 14.855622907317073 18.95352046829268  L 15.85530148292683 18.227211473170733  L 10.185670302439025 15.246509970731708  C 9.984953209756098 15.140986712195122  9.74516392195122 15.140986712195122  9.544446829268292 15.246509970731708  Z M 10.185670302439025 16.466189775609756  L 9.544446829268292 16.466189775609756  L 15.214078009756097 19.446891317073174  C 15.719534399999999 19.712625424390247  16.310289912195124 19.28341619512195  16.21375660487805 18.72058232195122  L 15.130953326829268 12.407355199999998  L 14.932804429268295 13.017195102439025  L 19.519632351219514 8.546142848780487  C 19.928555063414635 8.147541697560975  19.702906458536585 7.453066575609757  19.13778903414634 7.370950224390244  L 12.798948604878046 6.449862790243904  L 13.317709599999999 6.826764624390245  L 10.48289383414634 1.082800819512195  C 10.230165814634148 0.5707176390243903  9.49995131707317 0.5707176390243903  9.247223297560975 1.082800819512195  L 6.412407531707317 6.826764624390245  L 6.931168526829269 6.449862790243904  L 0.5923280975609756 7.370950224390244  C 0.027210673170731708 7.453066575609757  -0.19843793170731705 8.147541697560975  0.21048480000000003 8.546142848780487  L 4.797312702439025 13.017195102439025  L 4.5991638048780485 12.407355199999998  L 3.5163605463414638 18.72058232195122  C 3.419827219512195 19.28341619512195  4.010582731707317 19.712625424390247  4.516039121951219 19.446891317073174  L 10.185670302439025 16.466189775609756  Z " fill-rule="nonzero" fill="#d6af66" stroke="none" transform="matrix(1 0 0 1 10 155 )" />
  </g>
</svg>